# Blender v3.6.0 OBJ File: ''
# www.blender.org
mtllib terrain01_rock9_decimate-005.mtl
o terrain01_rock9
v -0.040489 0.971485 -0.049560
v -0.041707 0.981952 -0.051828
v -0.040932 0.984268 -0.050057
v -0.132347 1.069059 -0.050383
v -0.107240 1.067260 -0.050048
v -0.115824 1.067595 -0.050190
v -0.047190 1.017203 -0.050124
v -0.047525 1.021670 -0.050956
v -0.041589 1.027163 -0.052531
v -0.069899 1.044932 -0.050114
v -0.078151 1.067011 -0.051235
v -0.098236 1.066902 -0.050049
v -0.041607 1.035423 -0.049715
v -0.047372 1.049901 -0.053088
v -0.047357 1.055578 -0.053728
v -0.041716 1.061217 -0.054171
v -0.041528 1.066923 -0.052672
v -0.041761 1.049849 -0.054400
v -0.042495 0.996371 -0.032315
v -0.042123 1.002017 -0.039304
v -0.165954 0.908294 -0.043703
v -0.041419 0.908274 -0.046938
v -0.041726 0.964066 -0.045286
v -0.149323 1.069790 -0.044446
v -0.098953 1.052263 -0.044991
v -0.142277 1.066716 -0.044669
v -0.132333 1.066865 -0.047457
v -0.105097 1.053501 -0.039593
v -0.053309 1.023112 -0.045232
v -0.066716 1.031110 -0.042797
v -0.085834 1.044063 -0.042924
v -0.163543 0.908702 -0.038984
v -0.154997 0.906828 -0.038755
v -0.092673 0.905233 -0.038781
v -0.085824 0.908592 -0.039382
v -0.052700 0.926479 -0.040031
v -0.041618 0.953205 -0.039604
v -0.054587 0.964880 -0.034265
v -0.152284 1.066806 -0.038863
v -0.154988 1.068750 -0.038781
v -0.116452 1.049454 -0.025340
v -0.068298 0.908116 -0.041007
v -0.041548 0.924745 -0.044314
v -0.050454 0.974019 -0.037032
v -0.046617 0.988595 -0.026149
v -0.051013 0.975739 -0.025730
v -0.081855 0.924975 -0.031552
v -0.069504 0.935890 -0.033771
v -0.064415 0.951659 -0.032060
v -0.137993 0.906621 -0.033116
v -0.142980 0.908290 -0.033116
v -0.104003 0.905992 -0.033116
v -0.099310 0.908374 -0.033242
v -0.088829 0.915735 -0.032275
v -0.155009 1.066878 -0.036573
v -0.159143 1.068714 -0.031810
v -0.071388 1.024964 -0.021202
v -0.084306 0.924932 -0.030480
v -0.084378 0.925439 -0.029899
v -0.077259 0.929112 -0.025011
v -0.069119 0.940802 -0.029682
v -0.063622 0.959223 -0.028076
v -0.043245 1.000718 -0.020515
v -0.085346 0.915431 -0.019044
v -0.066400 0.948112 -0.028003
v -0.137791 0.908828 -0.031943
v -0.166354 1.068341 -0.027501
v -0.063882 1.016358 -0.006250
v -0.048269 1.012564 -0.024558
v -0.160653 1.066910 -0.031489
v -0.062985 0.959689 -0.023311
v -0.068032 0.943169 -0.021938
v -0.148237 0.908630 -0.034862
v -0.121930 0.918512 -0.009338
v -0.126847 0.908641 -0.027735
v -0.104635 0.908010 -0.027879
v -0.156723 1.053589 -0.019720
v -0.166323 1.061228 -0.021797
v -0.166364 1.061240 -0.021786
v -0.049947 0.981082 -0.020011
v -0.076352 0.931905 -0.016097
v -0.069355 0.950198 -0.015044
v -0.060051 0.966633 -0.017608
v -0.147913 0.940443 -0.004466
v -0.166366 0.941974 -0.013103
v -0.089577 1.036275 -0.009412
v -0.074157 0.941790 -0.013622
v -0.070328 0.959528 -0.009377
v -0.056014 0.978984 -0.011214
v -0.050538 1.003317 -0.012174
v -0.080839 0.930480 -0.008141
v -0.077130 0.944040 -0.007351
v -0.059101 0.989668 -0.006596
v -0.054431 0.988117 -0.011462
v -0.054072 1.003019 -0.006375
v -0.088528 0.923236 -0.000637
v -0.166318 1.048639 -0.012834
v -0.135832 1.044091 -0.015236
v -0.067099 0.969535 -0.004960
v -0.063415 0.980332 -0.005260
v -0.086838 0.931220 -0.002625
v -0.067700 0.974870 -0.005054
v -0.057357 1.011055 -0.006752
v -0.100174 0.913482 -0.008117
v -0.149770 1.023723 -0.004235
v -0.141135 1.033842 -0.007018
v -0.072046 0.971727 0.001211
v -0.062682 0.994930 0.001060
v -0.059595 1.005260 0.001750
v -0.087058 0.936206 0.003959
v -0.078120 0.948280 0.003074
v -0.127367 0.930178 -0.000953
v -0.100152 0.926068 0.004407
v -0.166258 0.989178 0.001584
v -0.166318 1.004708 0.000712
v -0.145310 1.016320 0.001899
v -0.085548 1.027619 0.002284
v -0.166408 0.962452 -0.004232
v -0.078512 0.967452 0.013288
v -0.082233 0.962490 0.013791
v -0.070923 0.981305 0.008374
v -0.070638 0.994280 0.015922
v -0.136147 0.960668 0.008566
v -0.071864 1.014800 0.012915
v -0.084368 0.952436 0.011328
v -0.075924 0.977745 0.015408
v -0.067819 1.002380 0.013709
v -0.110688 0.942807 0.008765
v -0.114776 0.965798 0.014179
v -0.136925 0.980334 0.011472
v -0.092551 0.951286 0.013763
v -0.121157 1.005798 0.013898
v -0.095697 1.014250 0.016518
v -0.083349 0.970490 0.020437
v -0.098410 0.998933 0.022196
v -0.092701 0.970419 0.022092
v -0.092710 1.004980 0.022438
v -0.081430 0.982001 0.021369
v -0.078592 0.981819 0.021377
v -0.075633 0.993268 0.021391
v -0.075618 0.998743 0.021091
v -0.081343 0.976270 0.019231
v -0.078519 0.990424 0.021733
v -0.078511 0.998930 0.021386
v -0.098256 0.976474 0.020680
v -0.081373 1.004502 0.020481
vn 0.2520 0.2823 0.9256
vn 0.1732 -0.2090 0.9625
vn 0.1925 -0.0755 0.9784
vn 0.0755 -0.1478 0.9861
vn 0.1466 0.1895 0.9709
vn 0.0373 -0.2550 0.9662
vn 0.2333 0.1299 0.9637
vn 0.1079 0.2267 0.9680
vn 0.7051 0.2221 0.6735
vn 0.7853 0.2118 0.5818
vn 0.8859 -0.2287 0.4037
vn 0.8868 -0.2137 0.4097
vn 0.9375 -0.2984 0.1792
vn 0.3676 0.7875 0.4947
vn 0.1577 0.7343 0.6603
vn 0.1934 0.8093 0.5547
vn 0.0350 0.6175 0.7858
vn 0.1031 0.5255 0.8445
vn 0.3487 0.6069 0.7142
vn 0.4806 0.6839 0.5489
vn 0.6322 0.4625 0.6217
vn 0.9801 -0.1356 0.1451
vn 0.9719 0.2356 -0.0031
vn 0.8433 0.3861 0.3738
vn 0.6672 -0.1041 0.7376
vn 0.4811 -0.2819 0.8301
vn 0.4222 0.6336 0.6483
vn 0.0341 0.3249 0.9451
vn 0.3468 -0.4552 0.8201
vn 0.1341 -0.1516 0.9793
vn 0.2745 -0.2255 0.9348
vn 0.2138 -0.1520 0.9650
vn 0.2869 -0.1884 0.9393
vn 0.4140 0.0313 0.9097
vn 0.7188 -0.2789 0.6369
vn 0.2267 0.8014 0.5536
vn 0.1640 0.8410 0.5156
vn 0.3418 0.7414 0.5775
vn 0.1390 0.9761 0.1672
vn 0.9265 -0.3325 0.1761
vn 0.8800 -0.4268 0.2084
vn -0.2685 -0.6664 0.6956
vn -0.5649 -0.5468 0.6180
vn -0.1790 -0.7368 0.6519
vn 0.3468 -0.5745 0.7414
vn 0.4434 -0.7314 0.5181
vn 0.5937 -0.7230 0.3532
vn 0.7376 -0.6167 0.2748
vn 0.5493 -0.3898 0.7391
vn 0.8890 -0.4107 0.2022
vn 0.7106 -0.2563 0.6552
vn 0.5049 0.6663 0.5487
vn 0.4927 0.6615 0.5654
vn 0.2549 0.6815 0.6860
vn 0.5014 0.8229 0.2673
vn 0.7576 0.6062 0.2420
vn -0.2751 -0.7140 -0.6438
vn -0.2719 -0.7136 -0.6456
vn 0.7983 -0.5986 0.0663
vn 0.9427 -0.3019 0.1422
vn 0.8169 -0.5389 0.2056
vn 0.8344 -0.5010 0.2299
vn 0.8701 -0.3431 0.3538
vn -0.7966 -0.4118 0.4426
vn -0.3930 -0.5146 0.7620
vn -0.2414 0.4065 0.8812
vn -0.1516 -0.4529 0.8786
vn -0.1484 -0.7633 0.6288
vn 0.4285 -0.8246 0.3694
vn 0.2431 -0.9370 0.2508
vn 0.6465 -0.7540 0.1163
vn -0.0406 0.6548 0.7547
vn 0.4759 0.6328 0.6108
vn 0.3988 0.6107 0.6841
vn 0.5886 0.7323 0.3424
vn 0.9305 0.0721 0.3591
vn 0.9125 -0.3350 0.2348
vn 0.7710 -0.5730 0.2779
vn 0.8479 -0.2726 0.4547
vn 0.7511 -0.5141 0.4143
vn -0.2810 -0.7261 0.6275
vn -0.1779 -0.8673 0.4649
vn 0.3018 0.5842 0.7534
vn 0.0902 0.6924 0.7158
vn 0.3479 0.8382 0.4199
vn 0.8049 -0.3838 0.4526
vn 0.8043 -0.3193 0.5011
vn 0.8212 -0.3388 0.4591
vn -0.3861 -0.4822 0.7863
vn 0.1268 0.5184 0.8457
vn 0.6816 0.5556 0.4762
vn 0.7043 -0.3298 0.6286
vn 0.7454 -0.1980 0.6365
vn 0.5499 -0.5260 0.6488
vn 0.7841 -0.1970 0.5885
vn 0.7747 -0.2342 0.5873
vn 0.6955 -0.2681 0.6667
vn 0.7541 0.3945 0.5251
vn 0.8205 0.0645 0.5680
vn 0.0830 -0.8634 0.4977
vn -0.3295 -0.5289 0.7821
vn -0.0777 0.5182 0.8517
vn 0.8342 -0.3503 0.4259
vn 0.5661 -0.3260 0.7571
vn 0.7662 -0.3488 0.5397
vn -0.3903 -0.2673 0.8810
vn 0.7972 -0.3865 0.4638
vn -0.1114 0.1689 0.9793
vn -0.4221 0.5558 0.7162
vn 0.2683 0.7872 0.5552
vn 0.8441 -0.2916 0.4499
vn 0.8180 -0.2890 0.4974
vn 0.8257 0.1604 0.5408
vn 0.5818 -0.4274 0.6920
vn 0.7743 -0.3097 0.5519
vn 0.0073 -0.5274 0.8496
vn -0.2755 0.3742 0.8855
vn -0.0522 0.5895 0.8061
vn 0.8490 -0.3317 0.4114
vn 0.5708 -0.4112 0.7107
vn 0.7534 -0.3318 0.5678
vn 0.7900 -0.1763 0.5872
vn -0.3037 -0.2465 0.9203
vn -0.1859 -0.3184 0.9295
vn -0.3067 -0.0347 0.9512
vn -0.2757 0.0004 0.9613
vn -0.2991 0.2844 0.9108
vn 0.4883 0.5868 0.6459
vn 0.4883 -0.3549 0.7973
vn 0.7536 0.0826 0.6522
vn -0.2174 -0.2065 0.9540
vn 0.1056 -0.3794 0.9192
vn 0.5716 -0.3384 0.7475
vn -0.1045 -0.3175 0.9425
vn -0.2800 0.1056 0.9542
vn -0.0612 0.4731 0.8789
vn 0.5244 0.1731 0.8337
vn 0.2938 -0.6285 0.7201
vn 0.6559 -0.2517 0.7116
vn 0.4536 -0.5902 0.6678
vn 0.6915 -0.1189 0.7125
vn 0.1584 -0.0422 0.9865
vn -0.3256 -0.0703 0.9429
vn 0.1918 0.4532 0.8705
vn 0.1130 0.2156 0.9699
usemtl None
s 1
f 10//1 14//2 15//3
f 10//1 15//3 16//4
f 16//4 11//5 10//1
f 11//5 16//4 17//6
f 10//1 13//7 18//8
f 18//8 14//2 10//1
f 23//9 1//10 44//11
f 44//11 2//12 3//13
f 1//10 2//12 44//11
f 28//14 4//15 27//16
f 6//17 4//15 28//14
f 6//17 28//14 5//18
f 5//18 28//14 25//19
f 30//20 29//21 10//1
f 19//22 3//13 20//23
f 20//23 3//13 7//24
f 29//21 7//24 8//25
f 29//21 8//25 13//7
f 13//7 8//25 9//26
f 30//20 10//1 31//27
f 31//27 10//1 11//5
f 5//18 25//19 12//28
f 25//19 31//27 11//5
f 12//28 25//19 11//5
f 10//1 29//21 13//7
f 35//29 42//30 36//31
f 42//30 22//32 43//33
f 42//30 43//33 36//31
f 36//31 43//33 37//34
f 37//34 23//9 38//35
f 38//35 23//9 44//11
f 27//16 26//36 41//37
f 24//38 39//39 26//36
f 27//16 41//37 28//14
f 31//27 25//19 28//14
f 45//40 44//11 3//13
f 38//35 44//11 46//41
f 19//22 45//40 3//13
f 73//42 32//43 33//44
f 34//45 35//29 53//46
f 53//46 35//29 54//47
f 47//48 54//47 35//29
f 47//48 35//29 48//49
f 35//29 36//31 48//49
f 61//50 48//49 49//51
f 48//49 36//31 49//51
f 49//51 36//31 38//35
f 38//35 36//31 37//34
f 55//52 26//36 39//39
f 55//52 39//39 40//53
f 41//37 26//36 77//54
f 57//55 30//20 31//27
f 29//21 20//23 7//24
f 69//56 29//21 30//20
f 59//57 58//58 47//48
f 47//48 48//49 60//59
f 65//60 61//50 49//51
f 62//61 49//51 38//35
f 45//40 46//41 44//11
f 58//58 59//57 47//48
f 65//60 49//51 62//61
f 62//61 38//35 71//62
f 71//62 38//35 46//41
f 46//41 45//40 80//63
f 21//64 32//43 85//65
f 73//42 85//65 32//43
f 51//66 50//67 66//68
f 73//42 51//66 66//68
f 52//69 53//46 76//70
f 54//47 76//70 53//46
f 64//71 54//47 47//48
f 61//50 60//59 48//49
f 77//54 70//72 67//73
f 77//54 56//74 70//72
f 77//54 55//52 56//74
f 55//52 77//54 26//36
f 68//75 30//20 57//55
f 63//76 19//22 20//23
f 20//23 29//21 69//56
f 69//56 63//76 20//23
f 69//56 30//20 68//75
f 64//71 47//48 60//59
f 61//50 65//60 72//77
f 65//60 62//61 71//62
f 63//76 45//40 19//22
f 81//78 61//50 72//77
f 82//79 72//77 65//60
f 65//60 71//62 82//79
f 71//62 46//41 83//80
f 83//80 46//41 80//63
f 45//40 63//76 80//63
f 74//81 73//42 66//68
f 74//81 66//68 75//82
f 76//70 54//47 64//71
f 81//78 60//59 61//50
f 67//73 78//83 77//54
f 98//84 41//37 77//54
f 57//55 31//27 86//85
f 28//14 86//85 31//27
f 64//71 60//59 91//86
f 91//86 60//59 81//78
f 87//87 81//78 72//77
f 87//87 72//77 82//79
f 82//79 71//62 88//88
f 88//88 71//62 83//80
f 85//65 73//42 84//89
f 74//81 84//89 73//42
f 78//83 97//90 77//54
f 68//75 57//55 86//85
f 103//91 63//76 69//56
f 103//91 69//56 68//75
f 41//37 86//85 28//14
f 89//92 83//80 80//63
f 89//92 80//63 94//93
f 96//94 64//71 91//86
f 91//86 81//78 87//87
f 99//95 88//88 83//80
f 102//96 83//80 89//92
f 93//97 89//92 94//93
f 63//76 90//98 95//99
f 104//100 75//82 76//70
f 104//100 74//81 75//82
f 74//81 112//101 84//89
f 76//70 64//71 104//100
f 96//94 104//100 64//71
f 97//90 106//102 98//84
f 77//54 97//90 98//84
f 98//84 86//85 41//37
f 94//93 80//63 63//76
f 63//76 95//99 94//93
f 90//98 63//76 103//91
f 92//103 91//86 87//87
f 92//103 87//87 82//79
f 83//80 102//96 99//95
f 100//104 102//96 89//92
f 93//97 100//104 89//92
f 103//91 95//99 90//98
f 101//105 96//94 91//86
f 84//89 118//106 85//65
f 92//103 82//79 88//88
f 88//88 111//107 92//103
f 115//108 105//109 106//102
f 106//102 97//90 115//108
f 86//85 98//84 117//110
f 117//110 68//75 86//85
f 107//111 88//88 99//95
f 107//111 99//95 102//96
f 100//104 93//97 108//112
f 109//113 95//99 103//91
f 110//114 96//94 101//105
f 101//105 91//86 110//114
f 110//114 91//86 92//103
f 110//114 92//103 111//107
f 111//107 88//88 119//115
f 107//111 119//115 88//88
f 112//101 74//81 113//116
f 74//81 104//100 113//116
f 96//94 113//116 104//100
f 115//108 116//117 105//109
f 106//102 105//109 116//117
f 133//118 98//84 106//102
f 117//110 98//84 133//118
f 108//112 93//97 109//113
f 109//113 103//91 68//75
f 109//113 94//93 95//99
f 109//113 93//97 94//93
f 107//111 102//96 121//119
f 102//96 108//112 121//119
f 108//112 102//96 100//104
f 120//120 111//107 119//115
f 107//111 121//119 126//121
f 122//122 108//112 109//113
f 84//89 112//101 123//123
f 112//101 113//116 128//124
f 128//124 123//123 112//101
f 118//106 84//89 123//123
f 118//106 123//123 130//125
f 130//125 114//126 118//106
f 110//114 113//116 96//94
f 116//117 115//108 114//126
f 116//117 132//127 106//102
f 124//128 109//113 68//75
f 111//107 125//129 110//114
f 120//120 125//129 111//107
f 126//121 119//115 107//111
f 108//112 122//122 121//119
f 109//113 127//130 122//122
f 123//123 128//124 129//131
f 128//124 113//116 131//132
f 110//114 131//132 113//116
f 110//114 125//129 131//132
f 116//117 114//126 130//125
f 130//125 132//127 116//117
f 106//102 132//127 133//118
f 127//130 109//113 124//128
f 133//118 124//128 117//110
f 68//75 117//110 124//128
f 119//115 134//133 120//120
f 122//122 126//121 121//119
f 129//131 131//132 136//134
f 128//124 131//132 129//131
f 123//123 129//131 130//125
f 130//125 129//131 135//135
f 120//120 131//132 125//129
f 134//133 131//132 120//120
f 130//125 135//135 132//127
f 132//127 137//136 133//118
f 127//130 124//128 141//137
f 138//138 142//139 126//121
f 139//140 138//138 126//121
f 139//140 126//121 140//141
f 122//122 140//141 126//121
f 141//137 140//141 122//122
f 141//137 122//122 127//130
f 143//142 139//140 140//141
f 145//143 135//135 129//131
f 129//131 136//134 145//143
f 136//134 131//132 134//133
f 142//139 134//133 119//115
f 142//139 119//115 126//121
f 137//136 132//127 135//135
f 137//136 146//144 133//118
f 124//128 133//118 146//144
f 146//144 144//145 141//137
f 124//128 146//144 141//137
l 78 79
