# Blender v3.6.0 OBJ File: ''
# www.blender.org
mtllib terrain01_rock12_decimate-005.mtl
o terrain01_rock12
v 0.445999 0.630939 -0.046340
v 0.450781 0.631564 -0.046644
v 0.511629 0.632466 -0.046330
v 0.511469 0.640042 -0.046800
v 0.508899 0.647217 -0.046520
v 0.511677 0.649296 -0.046207
v 0.510620 0.651793 -0.045348
v 0.508989 0.656641 -0.046430
v 0.511569 0.657687 -0.045974
v 0.513566 0.660144 -0.046031
v 0.511367 0.662561 -0.046632
v 0.514025 0.663106 -0.046340
v 0.514922 0.665456 -0.045992
v 0.515438 0.675020 -0.046313
v 0.514025 0.652603 -0.046680
v 0.443533 0.632044 -0.043924
v 0.453610 0.631688 -0.043813
v 0.458597 0.630982 -0.043821
v 0.504416 0.631193 -0.042616
v 0.501781 0.632412 -0.042582
v 0.501747 0.649025 -0.043256
v 0.509741 0.667194 -0.042873
v 0.512255 0.667656 -0.046311
v 0.512816 0.672840 -0.042839
v 0.513765 0.678368 -0.044056
v 0.514723 0.680334 -0.043851
v 0.509503 0.642526 -0.046339
v 0.443486 0.635959 -0.031423
v 0.458604 0.631754 -0.041297
v 0.463641 0.631096 -0.041296
v 0.476233 0.631144 -0.041301
v 0.481309 0.630586 -0.041008
v 0.493406 0.632358 -0.041112
v 0.501684 0.655769 -0.043018
v 0.504140 0.662793 -0.043246
v 0.510004 0.676244 -0.040616
v 0.515253 0.685356 -0.041301
v 0.456179 0.632866 -0.039774
v 0.457245 0.635330 -0.038433
v 0.468689 0.630632 -0.036197
v 0.471180 0.631251 -0.038788
v 0.478756 0.632446 -0.039313
v 0.475348 0.633004 -0.038861
v 0.481276 0.632427 -0.039629
v 0.490106 0.637637 -0.037839
v 0.497947 0.645233 -0.039566
v 0.499512 0.650256 -0.036469
v 0.503532 0.659316 -0.035663
v 0.513916 0.683220 -0.041391
v 0.515282 0.687536 -0.038575
v 0.453294 0.633928 -0.030767
v 0.476634 0.632976 -0.034029
v 0.508133 0.665785 -0.035282
v 0.510208 0.672674 -0.031770
v 0.507999 0.682192 -0.033849
v 0.515024 0.697956 -0.038696
v 0.482175 0.636625 -0.031766
v 0.487671 0.638939 -0.033320
v 0.497109 0.647721 -0.027987
v 0.504113 0.653990 -0.023320
v 0.506476 0.697903 -0.033929
v 0.510758 0.693058 -0.033936
v 0.504718 0.683029 -0.026381
v 0.504068 0.692671 -0.030080
v 0.442349 0.637461 -0.028693
v 0.508875 0.663904 -0.028084
v 0.496394 0.699025 -0.028690
v 0.443474 0.638219 -0.026084
v 0.467207 0.632272 -0.022523
v 0.473493 0.633154 -0.021870
v 0.476249 0.632544 -0.022093
v 0.484612 0.636793 -0.026064
v 0.508799 0.675296 -0.026051
v 0.497561 0.697832 -0.028970
v 0.493814 0.698027 -0.027486
v 0.454078 0.637736 -0.019506
v 0.495963 0.647219 -0.021175
v 0.507741 0.660944 -0.023194
v 0.509393 0.667665 -0.022235
v 0.473713 0.699453 -0.023665
v 0.476233 0.698837 -0.023665
v 0.490124 0.692756 -0.023199
v 0.484713 0.697835 -0.023783
v 0.497183 0.689359 -0.023532
v 0.481623 0.699089 -0.022488
v 0.471194 0.698957 -0.021145
v 0.476300 0.698000 -0.021644
v 0.498509 0.650698 -0.016415
v 0.504227 0.658851 -0.014600
v 0.468599 0.698120 -0.018188
v 0.473751 0.698453 -0.021052
v 0.507366 0.674881 -0.018542
v 0.443410 0.643565 -0.017691
v 0.501696 0.654834 -0.012724
v 0.504986 0.666194 -0.011498
v 0.461116 0.699435 -0.016107
v 0.464495 0.697945 -0.016102
v 0.497814 0.681995 -0.014939
v 0.478442 0.691068 -0.011815
v 0.466274 0.644035 -0.009274
v 0.481746 0.639877 -0.017724
v 0.451319 0.695223 -0.013411
v 0.443131 0.697973 -0.013506
v 0.458506 0.697968 -0.014275
v 0.451366 0.647240 -0.010817
v 0.443430 0.649315 -0.012556
v 0.474243 0.646930 -0.010189
v 0.480193 0.648702 -0.010001
v 0.492809 0.648927 -0.014123
v 0.497739 0.675017 -0.006547
v 0.443430 0.659937 -0.008364
v 0.449776 0.663494 -0.004920
v 0.498877 0.664624 -0.008397
v 0.442854 0.682506 -0.008098
v 0.443465 0.685848 -0.009208
v 0.456387 0.687762 -0.006427
v 0.486961 0.684681 -0.005870
v 0.453831 0.659389 -0.005703
v 0.443499 0.674726 -0.006269
v 0.465180 0.689662 -0.007657
v 0.486733 0.678053 0.000696
v 0.470605 0.659380 -0.000162
v 0.485757 0.655746 -0.004591
v 0.495711 0.660528 -0.005604
v 0.463085 0.665439 0.000946
v 0.487652 0.665879 -0.000496
v 0.476343 0.682120 0.000709
v 0.495286 0.669991 -0.002315
v 0.475021 0.668501 0.003994
v 0.465520 0.677363 0.001248
v 0.477576 0.675642 0.004170
v 0.483878 0.673120 0.002254
vn 0.2141 -0.2356 0.9480
vn 0.2528 -0.1312 0.9586
vn 0.3131 -0.0765 0.9466
vn 0.3907 -0.1473 0.9087
vn -0.1948 0.1232 0.9731
vn 0.2467 -0.1520 0.9571
vn 0.3070 0.0792 0.9484
vn -0.1278 -0.0561 0.9902
vn 0.6462 -0.2783 0.7106
vn -0.0226 -0.9624 0.2706
vn 0.1431 -0.8367 0.5287
vn -0.0100 -0.9646 0.2635
vn 0.3386 0.0579 0.9391
vn 0.2837 0.5926 0.7539
vn 0.3524 0.1231 0.9277
vn 0.3431 0.0817 0.9357
vn 0.3823 0.0694 0.9214
vn 0.6742 -0.0646 0.7357
vn 0.8140 -0.1961 0.5468
vn 0.7469 -0.4946 0.4445
vn 0.7748 -0.4559 0.4380
vn -0.1289 0.1273 0.9835
vn -0.1801 -0.0764 0.9807
vn 0.8324 -0.1515 0.5330
vn 0.6944 -0.2162 0.6864
vn 0.7356 -0.1851 0.6517
vn -0.4022 -0.7827 0.4749
vn -0.1205 -0.9716 0.2036
vn -0.1337 -0.9476 0.2902
vn -0.1343 -0.9056 0.4023
vn 0.7287 -0.3711 0.5756
vn 0.2166 -0.3170 0.9234
vn 0.8825 -0.0973 0.4601
vn 0.7314 -0.4410 0.5202
vn 0.6449 -0.3833 0.6612
vn -0.1993 -0.9685 0.1491
vn 0.0383 -0.9959 0.0819
vn -0.0515 -0.9772 0.2061
vn 0.1011 -0.9868 0.1264
vn -0.0530 -0.8033 0.5932
vn 0.2613 -0.7899 0.5547
vn 0.1438 -0.5494 0.8231
vn 0.4338 -0.5557 0.7092
vn 0.9079 -0.4083 0.0952
vn 0.8668 -0.4654 -0.1789
vn 0.8800 -0.4669 -0.0875
vn 0.7133 -0.2811 0.6420
vn 0.7723 -0.5001 0.3918
vn -0.2013 -0.9488 0.2435
vn 0.2884 -0.9534 0.0882
vn 0.9982 0.0291 0.0527
vn 0.8812 0.0404 0.4710
vn 0.6246 0.1918 0.7570
vn 0.5691 0.1157 0.8141
vn -0.2186 -0.9144 0.3407
vn 0.3085 -0.9512 -0.0087
vn 0.4963 -0.8668 0.0472
vn 0.5496 -0.7984 0.2459
vn 0.6812 -0.7288 0.0687
vn 0.8025 -0.5936 0.0603
vn 0.4446 0.3905 0.8061
vn 0.9371 -0.3364 -0.0929
vn 0.9348 0.2989 0.1919
vn 0.7790 0.4462 0.4405
vn 0.5573 0.2901 0.7780
vn -0.2712 -0.8866 0.3747
vn -0.1599 -0.8661 0.4735
vn -0.0635 -0.9182 0.3911
vn 0.5454 -0.8248 0.1494
vn 0.4130 0.4048 0.8159
vn -0.2942 -0.8106 0.5064
vn 0.0501 -0.8770 0.4778
vn 0.1274 -0.8964 0.4245
vn 0.9741 -0.0690 0.2152
vn 0.3708 0.1475 0.9169
vn 0.3268 0.4453 0.8336
vn 0.4797 0.5614 0.6743
vn 0.5925 -0.7738 0.2241
vn 0.9195 -0.3730 0.1242
vn 0.3851 0.5956 0.7049
vn 0.4648 0.5741 0.6741
vn -0.2884 -0.7474 0.5985
vn 0.3313 -0.7009 0.6317
vn 0.3921 -0.7132 0.5810
vn 0.5748 -0.7466 0.3349
vn 0.2227 0.8422 0.4910
vn 0.2332 0.9055 0.3546
vn 0.2228 0.9115 0.3457
vn 0.1495 0.8553 0.4961
vn 0.8408 0.3664 0.3985
vn 0.5661 0.6594 0.4947
vn 0.8188 -0.3584 0.4486
vn 0.1634 0.9024 0.3987
vn 0.3006 0.7147 0.6316
vn 0.2335 0.7926 0.5633
vn 0.3032 0.7162 0.6286
vn 0.2720 -0.7054 0.6545
vn 0.1399 -0.6595 0.7385
vn 0.7088 -0.5367 0.4577
vn 0.7752 -0.1090 0.6223
vn -0.2646 -0.5370 0.8010
vn 0.0003 -0.6339 0.7734
vn -0.3067 -0.4894 0.8163
vn -0.0283 0.3912 0.9199
vn 0.0085 0.5885 0.8084
vn 0.0909 0.3031 0.9486
vn 0.0333 0.6864 0.7264
vn 0.2087 0.6879 0.6952
vn 0.3037 0.6924 0.6545
vn 0.4231 0.7393 0.5239
vn -0.1979 0.4219 0.8848
vn 0.6452 0.4411 0.6239
vn -0.3451 -0.2422 0.9068
vn -0.3318 -0.2804 0.9007
vn 0.2470 -0.5475 0.7995
vn 0.5096 -0.3636 0.7798
vn 0.6355 -0.2932 0.7142
vn -0.1468 0.5560 0.8181
vn 0.5468 -0.0060 0.8372
vn -0.3146 -0.3522 0.8815
vn -0.3629 0.0564 0.9301
vn -0.3097 0.2840 0.9074
vn -0.2378 0.2883 0.9275
vn 0.3826 0.3795 0.8424
vn -0.2771 -0.2003 0.9397
vn -0.0352 -0.4556 0.8895
vn 0.3035 -0.2732 0.9128
vn 0.0542 0.6135 0.7878
vn 0.0075 -0.1994 0.9799
vn 0.3528 0.0160 0.9356
vn 0.1280 0.2467 0.9606
usemtl None
s 1
f 6//1 7//2 5//3
f 7//2 6//1 15//4
f 9//5 11//6 8//7
f 12//8 23//9 11//6
f 16//10 1//11 2//12
f 20//13 19//14 3//15
f 3//15 4//16 20//13
f 4//16 27//17 20//13
f 20//13 27//17 21//18
f 21//18 27//17 5//3
f 21//18 5//3 34//19
f 34//19 5//3 7//2
f 34//19 7//2 8//7
f 11//6 34//19 8//7
f 35//20 34//19 11//6
f 22//21 35//20 11//6
f 11//6 9//5 10//22
f 23//9 22//21 11//6
f 23//9 12//8 13//23
f 23//9 14//24 24//25
f 24//25 14//24 25//26
f 2//12 17//27 38//28
f 38//28 16//10 2//12
f 17//27 18//29 29//30
f 29//30 38//28 17//27
f 20//13 46//31 33//32
f 46//31 20//13 21//18
f 24//25 22//21 23//9
f 25//26 36//33 24//25
f 49//34 25//26 26//35
f 49//34 36//33 25//26
f 38//28 30//36 40//37
f 29//30 30//36 38//28
f 42//38 43//39 31//40
f 44//41 32//42 45//43
f 32//42 33//32 45//43
f 47//44 46//31 21//18
f 21//18 34//19 47//44
f 47//44 34//19 48//45
f 34//19 35//20 48//45
f 35//20 22//21 53//46
f 22//21 24//25 36//33
f 50//47 49//34 37//48
f 38//28 51//49 16//10
f 52//50 43//39 42//38
f 42//38 44//41 52//50
f 45//43 33//32 46//31
f 48//45 35//20 53//46
f 53//46 22//21 54//51
f 36//33 54//51 22//21
f 36//33 49//34 55//52
f 55//52 49//34 50//47
f 50//47 56//53 62//54
f 28//55 16//10 51//49
f 40//37 51//49 38//28
f 41//56 43//39 52//50
f 52//50 44//41 57//57
f 58//58 57//57 44//41
f 58//58 44//41 45//43
f 45//43 46//31 58//58
f 58//58 46//31 59//59
f 46//31 47//44 59//59
f 47//44 48//45 60//60
f 55//52 54//51 36//33
f 62//54 55//52 50//47
f 62//54 56//53 61//61
f 40//37 41//56 52//50
f 60//60 59//59 47//44
f 54//51 66//62 53//46
f 73//63 55//52 63//64
f 54//51 55//52 73//63
f 64//65 63//64 55//52
f 64//65 55//52 62//54
f 62//54 61//61 64//65
f 65//66 28//55 68//67
f 68//67 28//55 51//49
f 51//49 40//37 69//68
f 52//50 57//57 72//69
f 72//69 57//57 58//58
f 72//69 58//58 59//59
f 48//45 53//46 60//60
f 60//60 53//46 66//62
f 74//70 64//65 61//61
f 51//49 69//68 76//71
f 69//68 40//37 70//72
f 40//37 52//50 70//72
f 71//73 70//72 52//50
f 71//73 52//50 72//69
f 79//74 66//62 54//51
f 73//63 79//74 54//51
f 74//70 67//75 75//76
f 64//65 84//77 63//64
f 77//78 72//69 59//59
f 60//60 77//78 59//59
f 78//79 60//60 66//62
f 78//79 66//62 79//74
f 82//80 75//76 83//81
f 82//80 84//77 75//76
f 84//77 74//70 75//76
f 84//77 64//65 74//70
f 51//49 93//82 68//67
f 101//83 71//73 72//69
f 109//84 101//83 72//69
f 77//78 109//84 72//69
f 88//85 77//78 60//60
f 91//86 81//87 80//88
f 91//86 87//89 81//87
f 92//90 79//74 73//63
f 92//90 73//63 63//64
f 92//90 63//64 98//91
f 63//64 84//77 98//91
f 76//71 93//82 51//49
f 70//72 71//73 101//83
f 109//84 77//78 88//85
f 89//92 60//60 78//79
f 79//74 89//92 78//79
f 86//93 90//94 91//86
f 99//95 82//80 83//81
f 98//91 84//77 82//80
f 87//89 91//86 99//95
f 99//95 85//96 87//89
f 99//95 83//81 85//96
f 107//97 70//72 101//83
f 107//97 101//83 108//98
f 88//85 60//60 89//92
f 89//92 94//99 88//85
f 95//100 89//92 79//74
f 92//90 95//100 79//74
f 93//82 76//71 105//101
f 105//101 76//71 100//102
f 76//71 69//68 100//102
f 69//68 70//72 100//102
f 106//103 93//82 105//101
f 102//104 104//105 103//106
f 104//105 120//107 96//108
f 97//109 96//108 120//107
f 120//107 90//94 97//109
f 117//110 98//91 99//95
f 98//91 82//80 99//95
f 100//102 70//72 107//97
f 109//84 88//85 94//99
f 115//111 102//104 103//106
f 120//107 104//105 102//104
f 91//86 90//94 120//107
f 120//107 99//95 91//86
f 95//100 92//90 110//112
f 110//112 92//90 98//91
f 112//113 111//114 106//103
f 105//101 112//113 106//103
f 108//98 101//83 123//115
f 101//83 109//84 123//115
f 94//99 124//116 109//84
f 124//116 94//99 89//92
f 113//117 124//116 89//92
f 113//117 89//92 95//100
f 116//118 120//107 102//104
f 128//119 113//117 95//100
f 128//119 95//100 110//112
f 105//101 118//120 112//113
f 100//102 107//97 123//115
f 107//97 108//98 123//115
f 123//115 109//84 124//116
f 111//114 112//113 119//121
f 114//122 130//123 115//111
f 116//118 115//111 130//123
f 102//104 115//111 116//118
f 124//116 113//117 128//119
f 121//124 110//112 98//91
f 117//110 121//124 98//91
f 125//125 112//113 118//120
f 105//101 100//102 122//126
f 125//125 118//120 105//101
f 125//125 105//101 122//126
f 100//102 123//115 122//126
f 130//123 114//122 119//121
f 120//107 116//118 130//123
f 126//127 123//115 124//116
f 112//113 125//125 119//121
f 120//107 130//123 127//128
f 99//95 120//107 127//128
f 126//127 124//116 128//119
f 128//119 110//112 121//124
f 127//128 121//124 117//110
f 127//128 117//110 99//95
f 129//129 125//125 122//126
f 129//129 122//126 123//115
f 123//115 126//127 129//129
f 130//123 119//121 125//125
f 129//129 126//127 132//130
f 132//130 126//127 121//124
f 121//124 126//127 128//119
f 132//130 121//124 127//128
f 125//125 129//129 130//123
f 132//130 131//131 129//129
f 129//129 131//131 130//123
f 130//123 131//131 127//128
f 131//131 132//130 127//128
l 38 39
