# Blender v3.6.0 OBJ File: ''
# www.blender.org
mtllib terrain01_rock2_decimate-005.mtl
o terrain01_rock2
v -1.274421 -0.883747 -0.069771
v -1.276736 -0.881903 -0.069799
v -1.263576 -0.883563 -0.071399
v -1.429088 -1.084184 -0.069729
v -1.417278 -1.079571 -0.069704
v -1.411680 -1.077470 -0.069676
v -1.403407 -1.076279 -0.069561
v -1.394251 -1.079585 -0.074457
v -1.378086 -1.073225 -0.062983
v -1.361543 -1.079639 -0.070468
v -1.346720 -1.080498 -0.069416
v -1.313770 -1.085052 -0.069381
v -1.272446 -1.079506 -0.074883
v -1.272288 -1.071049 -0.071003
v -1.254033 -1.002998 -0.070557
v -1.253750 -0.992547 -0.069707
v -1.250630 -0.983900 -0.069676
v -1.403234 -0.880830 -0.069149
v -1.350728 -0.883895 -0.069723
v -1.327464 -0.887980 -0.069941
v -1.311897 -0.888095 -0.069995
v -1.307140 -0.883245 -0.069676
v -1.411680 -1.079730 -0.074758
v -1.378208 -1.079084 -0.075258
v -1.254858 -1.070922 -0.073586
v -1.489928 -0.896902 -0.074216
v -1.481370 -0.888072 -0.074762
v -1.464575 -0.888615 -0.074876
v -1.254870 -0.888072 -0.072653
v -1.254987 -0.904823 -0.068509
v -1.307029 -0.906624 -0.065117
v -1.280720 -1.039848 -0.058669
v -1.258410 -1.029168 -0.062769
v -1.272338 -1.022718 -0.061130
v -1.254292 -0.970811 -0.060993
v -1.302486 -0.914312 -0.060502
v -1.254499 -0.930980 -0.061665
v -1.272764 -0.914951 -0.060107
v -1.274973 -1.007264 -0.059979
v -1.265482 -0.995141 -0.062669
v -1.250880 -0.966567 -0.060778
v -1.254913 -1.035913 -0.064724
v -1.254781 -0.979545 -0.064430
v -1.278221 -0.894834 -0.064484
v -1.340940 -1.063400 -0.054846
v -1.318304 -1.053776 -0.048692
v -1.293302 -1.079468 -0.070249
v -1.498708 -0.898865 -0.077191
v -1.430014 -0.888197 -0.069687
v -1.394513 -0.885553 -0.060725
v -1.359262 -0.884058 -0.061047
v -1.251420 -0.957765 -0.060964
v -1.436840 -0.902626 -0.052404
v -1.294832 -0.888985 -0.061997
v -1.286388 -1.022239 -0.057162
v -1.270383 -0.997897 -0.056376
v -1.262037 -0.987431 -0.056227
v -1.260814 -0.969231 -0.055358
v -1.264130 -0.960477 -0.054086
v -1.255133 -0.952559 -0.057080
v -1.290255 -0.922528 -0.053649
v -1.267452 -0.936338 -0.053922
v -1.309332 -0.907909 -0.056993
v -1.322225 -0.893638 -0.058387
v -1.254091 -0.934702 -0.058328
v -1.292500 -1.027430 -0.049678
v -1.272894 -0.952700 -0.051544
v -1.323777 -0.887816 -0.030338
v -1.285766 -1.018843 -0.049855
v -1.437836 -1.085961 -0.052254
v -1.429169 -1.082665 -0.052270
v -1.398992 -1.076549 -0.032837
v -1.307978 -1.042927 -0.044617
v -1.366900 -0.889538 -0.036994
v -1.298977 -1.037435 -0.049803
v -1.266187 -0.995400 -0.047882
v -1.276443 -0.948846 -0.046561
v -1.258723 -0.975095 -0.048968
v -1.278702 -0.941698 -0.044893
v -1.282282 -0.933105 -0.050100
v -1.311364 -0.903568 -0.043899
v -1.273537 -1.014812 -0.029947
v -1.255998 -0.988466 -0.032928
v -1.260888 -0.968062 -0.039214
v -1.294824 -0.918668 -0.038046
v -1.282804 -0.930579 -0.037274
v -1.499006 -0.937469 -0.028910
v -1.381895 -0.902026 -0.019205
v -1.258810 -0.994173 -0.029697
v -1.258608 -0.984448 -0.039275
v -1.308043 -0.907805 -0.031222
v -1.312788 -0.896312 -0.033404
v -1.299678 -1.031704 -0.026672
v -1.261961 -1.003254 -0.026564
v -1.266243 -0.958398 -0.033548
v -1.282022 -0.941418 -0.028202
v -1.446520 -1.085990 -0.034829
v -1.437860 -1.083389 -0.034884
v -1.341114 -1.055817 -0.024964
v -1.323502 -1.042182 -0.013430
v -1.290239 -0.929971 -0.028556
v -1.272715 -0.951047 -0.019514
v -1.263915 -0.965387 -0.020796
v -1.297355 -0.920810 -0.020499
v -1.310334 -0.902696 -0.016385
v -1.455265 -1.084747 -0.026243
v -1.334258 -0.890795 -0.020489
v -1.267757 -1.009272 -0.013484
v -1.262215 -0.986790 -0.016964
v -1.290828 -0.927828 -0.016914
v -1.261522 -0.972930 -0.013474
v -1.266204 -0.963363 -0.003880
v -1.289653 -0.939788 -0.010592
v -1.297174 -0.918862 -0.011615
v -1.498754 -1.083835 -0.017921
v -1.455194 -1.081370 -0.017311
v -1.363959 -1.058095 -0.011472
v -1.300174 -1.020573 -0.003866
v -1.503186 -0.950610 -0.015977
v -1.442571 -0.934886 -0.004165
v -1.283006 -0.945616 -0.007528
v -1.266404 -0.998632 0.002882
v -1.262966 -0.981280 -0.005124
v -1.290136 -0.929396 -0.007515
v -1.325857 -0.897557 -0.011406
v -1.424816 -1.071807 -0.005525
v -1.284511 -0.945328 0.001453
v -1.308482 -0.916926 0.002901
v -1.267561 -0.981507 0.010058
v -1.271566 -0.969159 0.010795
v -1.292915 -0.922519 0.004119
v -1.320812 -0.909462 -0.003884
v -1.382794 -1.054652 0.015339
v -1.498761 -0.966487 -0.000678
v -1.467367 -0.961681 0.016479
v -1.399410 -0.933924 0.008191
v -1.317065 -1.021898 0.000723
v -1.275930 -0.957114 0.011832
v -1.289630 -0.927200 0.009015
v -1.297156 -0.929710 0.020537
v -1.357186 -1.041432 0.010871
v -1.498796 -1.066442 -0.003668
v -1.498801 -1.042003 0.008774
v -1.502809 -1.036152 0.008680
v -1.501697 -0.983902 0.008724
v -1.498683 -0.975429 0.005150
v -1.426025 -0.950976 0.021088
v -1.360564 -1.036153 0.019578
v -1.279436 -0.980163 0.020351
v -1.338809 -1.024380 0.014816
v -1.453950 -1.064458 0.007989
v -1.485973 -1.035556 0.019239
v -1.499223 -1.009435 0.017388
v -1.498712 -0.993336 0.014231
v -1.356714 -0.955638 0.030929
v -1.498790 -1.027460 0.013875
v -1.326547 -1.004096 0.022352
v -1.286170 -0.958568 0.025284
v -1.328968 -0.940072 0.021598
v -1.296613 -0.950575 0.032985
v -1.338403 -1.011370 0.030133
v -1.334083 -1.000697 0.031895
v -1.319971 -0.980354 0.037249
v -1.306743 -0.985373 0.029843
v -1.290737 -0.965274 0.034014
v -1.445869 -1.016111 0.040466
v -1.373149 -1.020363 0.048757
v -1.424139 -0.987124 0.043783
v -1.402561 -0.959484 0.028925
v -1.324939 -0.968025 0.039303
v -1.458967 -0.990614 0.034727
v -1.356296 -1.008162 0.043191
v -1.344293 -0.985219 0.048331
v -1.330202 -0.979523 0.043289
v -1.434185 -1.030483 0.038569
v -1.406327 -1.045435 0.031218
v -1.353877 -0.980782 0.051182
v -1.354213 -0.989949 0.052417
v -1.385463 -1.019284 0.054644
v -1.394250 -1.009984 0.057139
v -1.394429 -0.992225 0.053890
v -1.368358 -0.981302 0.051600
v -1.376822 -1.001351 0.057725
v -1.376812 -1.014762 0.054944
v -1.385735 -0.992360 0.055607
vn 0.2830 -0.9577 0.0516
vn 0.3226 -0.8649 0.3846
vn 0.1857 -0.4832 -0.8556
vn -0.0093 -0.8690 0.4948
vn -0.0438 -0.9014 0.4307
vn 0.0931 -0.9443 0.3156
vn 0.3156 -0.2022 0.9271
vn -0.0646 -0.3819 0.9219
vn 0.1911 -0.2910 0.9374
vn 0.0085 0.0535 0.9985
vn -0.2960 0.2624 0.9184
vn -0.1680 0.6616 0.7308
vn 0.2290 0.2718 0.9347
vn 0.2840 0.2643 0.9217
vn 0.2547 0.2306 0.9391
vn 0.1305 0.2424 0.9614
vn 0.1931 0.3664 0.9102
vn 0.4153 0.0269 0.9093
vn 0.3378 -0.1392 0.9309
vn 0.8820 -0.4173 0.2192
vn 0.7478 -0.1732 0.6410
vn 0.8951 0.0569 0.4422
vn 0.5460 -0.3904 0.7413
vn 0.1796 0.3343 0.9252
vn 0.3679 0.2227 0.9028
vn 0.3446 0.3965 0.8509
vn 0.3976 0.7452 0.5353
vn 0.2965 0.5648 0.7701
vn 0.7068 0.7052 0.0549
vn 0.1431 -0.9870 0.0730
vn -0.1016 -0.8551 0.5083
vn -0.0444 -0.6629 0.7474
vn 0.1159 -0.8192 0.5616
vn 0.0760 -0.5594 0.8254
vn 0.3080 -0.7109 0.6323
vn 0.2481 -0.4170 0.8744
vn 0.1493 -0.3473 0.9258
vn 0.6305 -0.4007 0.6648
vn 0.7182 -0.3905 0.5760
vn 0.2346 0.1524 0.9601
vn 0.5932 0.0539 0.8033
vn 0.6370 -0.2542 0.7278
vn 0.6551 -0.2390 0.7168
vn -0.2338 0.6872 0.6878
vn -0.2260 0.7979 0.5588
vn -0.1640 0.7838 0.5989
vn -0.2161 0.7390 0.6380
vn -0.2072 0.8701 0.4472
vn 0.7469 0.6647 -0.0177
vn 0.3415 0.8924 0.2950
vn -0.1406 0.1909 0.9715
vn -0.2016 -0.6564 0.7270
vn -0.3877 0.3233 0.8632
vn 0.2581 0.3377 0.9052
vn 0.6753 -0.2395 0.6976
vn 0.8674 -0.4975 -0.0086
vn 0.4985 -0.1124 0.8596
vn 0.6850 0.3020 0.6630
vn 0.2366 0.4232 0.8746
vn 0.7573 -0.4492 0.4741
vn 0.5383 -0.3529 0.7653
vn 0.8333 -0.5036 -0.2280
vn 0.7197 0.3700 0.5875
vn 0.3894 -0.0843 0.9172
vn 0.3624 -0.9284 0.0824
vn 0.2550 -0.9657 0.0491
vn 0.2259 -0.9581 0.1759
vn 0.5919 -0.6244 0.5097
vn 0.7100 -0.7040 0.0164
vn -0.1142 0.9423 0.3146
vn 0.1834 0.9443 0.2734
vn 0.4874 -0.0790 0.8696
vn 0.4387 0.7461 0.5009
vn 0.6172 0.5782 0.5336
vn 0.1872 0.9484 0.2560
vn 0.3384 0.9313 0.1350
vn 0.9906 0.0737 -0.1153
vn 0.9283 0.3703 0.0338
vn 0.8425 0.3031 0.4453
vn 0.8678 0.4471 0.2168
vn 0.7370 0.6668 -0.1105
vn 0.6495 -0.7534 -0.1026
vn 0.9598 -0.0860 -0.2671
vn 0.9868 -0.1552 -0.0473
vn 0.6967 0.6976 0.1674
vn 0.8617 0.3622 0.3554
vn 0.3523 -0.9257 0.1375
vn 0.1961 -0.9670 0.1629
vn -0.2680 0.7504 0.6042
vn -0.2141 0.7953 0.5672
vn 0.8860 -0.4635 -0.0120
vn 0.9317 -0.3597 0.0501
vn 0.8225 0.5686 -0.0126
vn 0.7282 0.6689 -0.1490
vn 0.8234 0.5672 0.0154
vn 0.5652 -0.7947 0.2211
vn 0.7573 0.6382 0.1382
vn 0.8051 0.5358 0.2543
vn 0.3368 -0.8829 0.3271
vn 0.4505 -0.7539 0.4782
vn 0.7285 0.6738 0.1239
vn 0.9389 0.3353 0.0776
vn 0.7772 0.6226 -0.0911
vn 0.6361 0.7052 0.3131
vn 0.2662 -0.8778 0.3982
vn 0.2016 -0.9020 0.3818
vn -0.0391 0.8802 0.4730
vn 0.7242 -0.6384 0.2606
vn 0.9757 -0.0820 0.2034
vn 0.9145 0.4032 -0.0331
vn 0.9913 0.1288 0.0282
vn 0.8799 0.3957 0.2631
vn 0.8903 0.4553 -0.0103
vn 0.6538 0.7421 0.1478
vn 0.1656 0.7356 0.6568
vn 0.7317 0.6807 0.0353
vn 0.3297 -0.8631 0.3825
vn 0.3569 -0.7222 0.5924
vn -0.2730 0.7665 0.5813
vn 0.9727 0.0234 0.2310
vn 0.7388 -0.4576 0.4948
vn 0.9384 0.3381 -0.0709
vn 0.2040 0.6644 0.7190
vn 0.1122 -0.8869 0.4481
vn -0.0594 -0.7360 0.6744
vn 0.8181 -0.4958 0.2912
vn 0.3569 -0.6136 0.7043
vn -0.1713 0.6321 0.7557
vn 0.8496 0.5190 -0.0935
vn 0.8140 0.4162 0.4052
vn 0.1769 0.8053 0.5659
vn 0.8287 0.0155 0.5594
vn 0.8304 0.1942 0.5223
vn 0.6394 0.7513 0.1637
vn -0.0932 -0.7134 0.6946
vn 0.2785 -0.8108 0.5148
vn 0.4403 -0.7109 0.5484
vn 0.0246 0.6972 0.7164
vn -0.4371 0.5722 0.6939
vn -0.3517 0.5703 0.7423
vn -0.0836 0.6554 0.7506
vn 0.7923 0.5732 0.2090
vn 0.2835 0.6421 0.7122
vn -0.2198 -0.5786 0.7854
vn 0.0156 -0.7183 0.6956
vn -0.3803 -0.3349 0.8621
vn -0.4676 -0.3716 0.8020
vn 0.4832 -0.6141 0.6240
vn -0.4469 0.4378 0.7801
vn -0.0933 0.5913 0.8011
vn 0.4910 -0.5707 0.6582
vn 0.5709 -0.2555 0.7803
vn -0.5003 -0.2942 0.8143
vn -0.4891 -0.2142 0.8455
vn -0.4419 -0.0025 0.8971
vn 0.4786 -0.6508 0.5894
vn 0.2882 -0.4862 0.8250
vn -0.2101 0.4424 0.8718
vn -0.4417 0.3076 0.8428
vn -0.0466 0.6197 0.7835
vn 0.4925 -0.0297 0.8698
vn 0.7317 0.3212 0.6013
vn 0.5153 -0.5061 0.6916
vn 0.5241 -0.5676 0.6350
vn 0.3203 0.3973 0.8600
vn -0.2080 -0.4824 0.8509
vn -0.3599 0.2442 0.9005
vn -0.1028 0.5961 0.7963
vn -0.0229 0.4553 0.8900
vn 0.5761 -0.4376 0.6904
vn 0.4334 -0.6080 0.6652
vn 0.4616 -0.2260 0.8578
vn -0.3248 -0.1533 0.9333
vn -0.2297 0.3822 0.8951
vn 0.1672 0.2902 0.9422
vn 0.4260 -0.1832 0.8860
vn 0.4220 -0.1393 0.8958
vn 0.4303 -0.4167 0.8008
vn 0.3250 -0.1241 0.9375
vn -0.2529 -0.1715 0.9522
vn -0.2201 0.4250 0.8780
vn 0.1254 0.3558 0.9261
vn 0.0771 -0.6386 0.7657
vn -0.0091 0.4151 0.9097
vn 0.4010 0.1863 -0.8970
usemtl None
s 1
f 5//1 23//2 6//3
f 8//4 24//5 9//6
f 32//7 14//8 25//9
f 27//10 26//11 28//12
f 3//13 30//14 29//15
f 44//16 30//14 3//13
f 3//13 1//17 44//16
f 33//18 32//7 42//19
f 57//20 43//21 58//22
f 58//22 43//21 35//23
f 30//14 38//24 62//25
f 62//25 37//26 30//14
f 36//27 31//28 63//29
f 30//14 44//16 38//24
f 6//3 7//30 5//1
f 9//6 7//30 8//4
f 9//6 24//5 10//31
f 9//6 11//32 45//33
f 10//31 11//32 9//6
f 11//32 12//34 45//33
f 46//35 45//33 12//34
f 46//35 12//34 47//36
f 13//37 14//8 32//7
f 47//36 13//37 32//7
f 32//7 25//9 42//19
f 40//38 39//39 34//40
f 15//41 33//18 42//19
f 15//41 40//38 33//18
f 40//38 34//40 33//18
f 40//38 15//41 16//42
f 57//20 16//42 43//21
f 57//20 40//38 16//42
f 43//21 16//42 17//43
f 48//44 53//45 26//11
f 28//12 26//11 53//45
f 28//12 53//45 49//46
f 18//47 49//46 50//48
f 64//49 31//28 20//50
f 31//28 21//51 20//50
f 36//27 44//16 31//28
f 44//16 21//51 31//28
f 36//27 38//24 44//16
f 21//51 44//16 54//52
f 22//53 21//51 54//52
f 1//17 54//52 44//16
f 54//52 1//17 2//54
f 55//55 33//18 34//40
f 32//7 33//18 55//55
f 56//56 39//39 40//38
f 56//56 40//38 57//20
f 58//22 35//23 41//57
f 58//22 41//57 59//58
f 65//59 37//26 62//25
f 63//29 31//28 64//49
f 66//60 75//61 32//7
f 66//60 32//7 55//55
f 56//56 57//20 76//62
f 67//63 59//58 60//64
f 60//64 62//25 67//63
f 62//25 60//64 65//59
f 4//65 5//1 71//66
f 5//1 7//30 72//67
f 72//67 71//66 5//1
f 7//30 9//6 72//67
f 47//36 73//68 46//35
f 75//61 73//68 47//36
f 32//7 75//61 47//36
f 69//69 55//55 39//39
f 55//55 34//40 39//39
f 53//45 50//48 49//46
f 50//48 74//70 51//71
f 52//72 59//58 41//57
f 60//64 59//58 52//72
f 38//24 36//27 61//73
f 61//73 80//74 38//24
f 38//24 80//74 62//25
f 51//71 74//70 19//75
f 20//50 19//75 74//70
f 68//76 64//49 20//50
f 66//60 55//55 69//69
f 76//62 39//39 56//56
f 57//20 58//22 78//77
f 67//63 84//78 59//58
f 58//22 59//58 84//78
f 79//79 77//80 67//63
f 79//79 62//25 80//74
f 79//79 67//63 62//25
f 63//29 64//49 81//81
f 36//27 63//29 81//81
f 73//68 75//61 66//60
f 69//69 39//39 82//82
f 76//62 82//82 39//39
f 76//62 57//20 90//83
f 90//83 83//84 76//62
f 57//20 78//77 90//83
f 84//78 78//77 58//22
f 84//78 90//83 78//77
f 61//73 36//27 85//85
f 85//85 86//86 80//74
f 80//74 61//73 85//85
f 81//81 85//85 36//27
f 70//87 71//66 98//88
f 87//89 53//45 48//44
f 88//90 50//48 53//45
f 74//70 50//48 88//90
f 20//50 74//70 68//76
f 94//91 82//82 76//62
f 94//91 76//62 89//92
f 84//78 67//63 95//93
f 95//93 67//63 77//80
f 79//79 80//74 86//86
f 81//81 64//49 68//76
f 68//76 92//94 81//81
f 85//85 81//81 91//95
f 73//68 66//60 93//96
f 76//62 83//84 89//92
f 95//93 77//80 96//97
f 96//97 77//80 79//79
f 101//98 79//79 86//86
f 92//94 91//95 81//81
f 98//88 71//66 72//67
f 72//67 9//6 99//99
f 9//6 45//33 99//99
f 45//33 46//35 99//99
f 99//99 46//35 100//100
f 100//100 46//35 73//68
f 93//96 66//60 69//69
f 82//82 93//96 69//69
f 90//83 84//78 83//84
f 101//98 96//97 79//79
f 91//95 101//98 85//85
f 86//86 85//85 101//98
f 96//97 102//101 95//93
f 83//84 84//78 103//102
f 84//78 95//93 103//102
f 104//103 101//98 91//95
f 105//104 104//103 91//95
f 97//105 98//88 106//106
f 106//106 98//88 72//67
f 100//100 73//68 93//96
f 107//107 74//70 88//90
f 68//76 74//70 107//107
f 94//91 108//108 82//82
f 89//92 83//84 109//109
f 83//84 103//102 109//109
f 110//110 101//98 104//103
f 105//104 91//95 92//94
f 68//76 105//104 92//94
f 108//108 93//96 82//82
f 109//109 94//91 89//92
f 109//109 103//102 111//111
f 103//102 95//93 112//112
f 95//93 102//101 112//112
f 113//113 101//98 110//110
f 102//101 96//97 121//114
f 113//113 96//97 101//98
f 105//104 68//76 125//115
f 104//103 105//104 114//116
f 72//67 99//99 117//117
f 118//118 100//100 93//96
f 53//45 87//89 120//119
f 88//90 53//45 120//119
f 107//107 125//115 68//76
f 109//109 108//108 94//91
f 111//111 123//120 109//109
f 121//114 112//112 102//101
f 96//97 113//113 121//114
f 110//110 104//103 114//116
f 108//108 109//109 122//121
f 123//120 122//121 109//109
f 111//111 103//102 112//112
f 113//113 110//110 124//122
f 114//116 124//122 110//110
f 125//115 132//123 105//104
f 126//124 151//125 106//106
f 151//125 116//126 106//106
f 106//106 72//67 126//124
f 100//100 117//117 99//99
f 137//127 100//100 118//118
f 108//108 118//118 93//96
f 147//128 88//90 120//119
f 125//115 107//107 88//90
f 112//112 121//114 127//129
f 127//129 138//130 112//112
f 132//123 128//131 105//104
f 114//116 105//104 128//131
f 129//132 122//121 123//120
f 130//133 129//132 123//120
f 123//120 111//111 130//133
f 112//112 130//133 111//111
f 127//129 121//114 113//113
f 124//122 127//129 113//113
f 124//122 114//116 131//134
f 128//131 131//134 114//116
f 115//135 116//126 151//125
f 126//124 72//67 133//136
f 133//136 72//67 117//117
f 100//100 141//137 117//117
f 118//118 108//108 122//121
f 87//89 119//138 134//139
f 135//140 87//89 134//139
f 135//140 120//119 87//89
f 88//90 147//128 136//141
f 125//115 88//90 136//141
f 131//134 127//129 124//122
f 138//130 130//133 112//112
f 127//129 131//134 139//142
f 131//134 128//131 140//143
f 115//135 151//125 142//144
f 151//125 126//124 176//145
f 152//146 143//147 142//144
f 133//136 117//117 141//137
f 137//127 150//148 100//100
f 135//140 134//139 146//149
f 125//115 136//141 159//150
f 125//115 159//150 132//123
f 157//151 150//148 137//127
f 149//152 122//121 129//132
f 138//130 127//129 139//142
f 140//143 139//142 131//134
f 149//152 129//132 130//133
f 140//143 138//130 139//142
f 126//124 133//136 176//145
f 144//153 143//147 152//146
f 152//146 156//154 144//153
f 153//155 156//154 152//146
f 148//156 133//136 141//137
f 148//156 141//137 150//148
f 141//137 100//100 150//148
f 137//127 118//118 164//157
f 164//157 118//118 122//121
f 164//157 122//121 149//152
f 146//149 145//158 154//159
f 154//159 135//140 146//149
f 120//119 135//140 147//128
f 159//150 136//141 155//160
f 132//123 159//150 128//131
f 165//161 149//152 130//133
f 158//162 165//161 138//130
f 165//161 130//133 138//130
f 158//162 138//130 140//143
f 172//163 148//156 150//148
f 161//164 172//163 150//148
f 160//165 158//162 140//143
f 175//166 142//144 151//125
f 175//166 152//146 142//144
f 154//159 153//155 171//167
f 151//125 176//145 175//166
f 164//157 157//151 137//127
f 135//140 154//159 171//167
f 147//128 169//168 136//141
f 169//168 182//169 136//141
f 155//160 136//141 182//169
f 159//150 140//143 128//131
f 161//164 150//148 157//151
f 161//164 157//151 162//170
f 167//171 148//156 172//163
f 157//151 163//172 162//170
f 158//162 160//165 165//161
f 166//173 152//146 175//166
f 153//155 152//146 166//173
f 153//155 166//173 171//167
f 133//136 148//156 167//171
f 157//151 164//157 163//172
f 168//174 135//140 171//167
f 135//140 168//174 147//128
f 168//174 169//168 147//128
f 159//150 155//160 170//175
f 140//143 159//150 160//165
f 159//150 170//175 160//165
f 165//161 164//157 149//152
f 161//164 162//170 173//176
f 173//176 162//170 174//177
f 184//178 167//171 172//163
f 161//164 178//179 172//163
f 173//176 178//179 161//164
f 163//172 170//175 174//177
f 176//145 133//136 167//171
f 180//180 171//167 166//173
f 171//167 180//180 168//174
f 174//177 162//170 163//172
f 181//181 169//168 168//174
f 182//169 169//168 181//181
f 155//160 182//169 177//182
f 177//182 174//177 170//175
f 170//175 163//172 164//157
f 155//160 177//182 170//175
f 170//175 164//157 165//161
f 160//165 170//175 165//161
f 174//177 177//182 173//176
f 184//178 172//163 178//179
f 177//182 178//179 173//176
f 175//166 176//145 179//183
f 176//145 167//171 179//183
f 166//173 175//166 180//180
f 179//183 180//180 175//166
f 180//180 181//181 168//174
f 182//169 178//179 177//182
f 179//183 167//171 184//178
f 181//181 185//184 182//169
f 178//179 185//184 184//178
f 185//184 183//185 184//178
f 182//169 185//184 178//179
