# Blender v3.6.0 OBJ File: ''
# www.blender.org
mtllib terrain01_rock6_decimate-005.mtl
o terrain01_rock6
v -0.299534 -0.310294 -0.083598
v -0.305170 -0.225477 -0.082588
v -0.317049 -0.225863 -0.083239
v -0.306516 -0.310150 -0.079557
v -0.299402 -0.304780 -0.077768
v -0.369621 -0.225973 -0.079371
v -0.360695 -0.226528 -0.079902
v -0.355638 -0.226414 -0.079313
v -0.328433 -0.226634 -0.080997
v -0.317275 -0.225717 -0.082379
v -0.324091 -0.226908 -0.080188
v -0.312456 -0.229979 -0.079014
v -0.298175 -0.229697 -0.083152
v -0.328318 -0.311261 -0.075466
v -0.315532 -0.309685 -0.079027
v -0.304493 -0.302796 -0.072205
v -0.299603 -0.306873 -0.075971
v -0.299530 -0.306056 -0.076051
v -0.299427 -0.306843 -0.076134
v -0.398716 -0.233109 -0.076029
v -0.342842 -0.226130 -0.077377
v -0.331113 -0.226124 -0.078081
v -0.306496 -0.233246 -0.074141
v -0.299312 -0.239941 -0.072156
v -0.397749 -0.226106 -0.078528
v -0.327437 -0.309395 -0.071546
v -0.323469 -0.310609 -0.072287
v -0.299554 -0.299514 -0.072563
v -0.298880 -0.296547 -0.071853
v -0.397918 -0.232648 -0.075860
v -0.386776 -0.226196 -0.076781
v -0.347420 -0.229815 -0.071680
v -0.330178 -0.311654 -0.068328
v -0.313715 -0.306195 -0.064402
v -0.299479 -0.293544 -0.069037
v -0.299473 -0.289120 -0.069066
v -0.382525 -0.234852 -0.069096
v -0.297872 -0.243435 -0.068957
v -0.331500 -0.310042 -0.068004
v -0.298764 -0.285785 -0.065410
v -0.299498 -0.281656 -0.065624
v -0.299420 -0.277621 -0.065588
v -0.297839 -0.272600 -0.065855
v -0.398801 -0.247153 -0.065528
v -0.365177 -0.241551 -0.055493
v -0.297905 -0.254096 -0.065736
v -0.299396 -0.246126 -0.065469
v -0.306534 -0.245922 -0.057500
v -0.322814 -0.232407 -0.061557
v -0.309038 -0.236577 -0.064831
v -0.330360 -0.306561 -0.062946
v -0.302531 -0.276326 -0.058896
v -0.397817 -0.246885 -0.065109
v -0.299687 -0.259053 -0.062109
v -0.299474 -0.267833 -0.063130
v -0.341478 -0.310210 -0.054919
v -0.330074 -0.306553 -0.058528
v -0.321140 -0.303802 -0.046762
v -0.307118 -0.297394 -0.057453
v -0.386169 -0.251468 -0.053784
v -0.337517 -0.237444 -0.049673
v -0.310918 -0.254187 -0.051227
v -0.306972 -0.293444 -0.052329
v -0.309148 -0.275224 -0.051596
v -0.307770 -0.266331 -0.057290
v -0.398989 -0.261174 -0.054987
v -0.397761 -0.259760 -0.054968
v -0.397870 -0.310289 -0.052373
v -0.397759 -0.293279 -0.051610
v -0.399140 -0.289247 -0.051496
v -0.398985 -0.268200 -0.051496
v -0.345070 -0.310299 -0.051428
v -0.331041 -0.305427 -0.048138
v -0.307514 -0.288240 -0.052102
v -0.397636 -0.265635 -0.051566
v -0.318472 -0.238958 -0.051781
v -0.351637 -0.310063 -0.046361
v -0.397755 -0.268214 -0.049727
v -0.314540 -0.299751 -0.045442
v -0.316025 -0.271695 -0.047111
v -0.350047 -0.251893 -0.033087
v -0.397552 -0.289184 -0.050979
v -0.386747 -0.282980 -0.043476
v -0.389601 -0.265390 -0.045796
v -0.316952 -0.283020 -0.040900
v -0.341853 -0.245109 -0.040160
v -0.317732 -0.264765 -0.044571
v -0.379809 -0.310229 -0.044556
v -0.317340 -0.278790 -0.043807
v -0.323127 -0.244580 -0.045038
v -0.360992 -0.310172 -0.043217
v -0.375927 -0.272919 -0.036095
v -0.377524 -0.287077 -0.038112
v -0.366955 -0.285562 -0.036218
v -0.342592 -0.301366 -0.038838
v -0.340348 -0.296041 -0.036017
v -0.329414 -0.298005 -0.036901
v -0.323613 -0.281759 -0.037204
v -0.330579 -0.261992 -0.035458
v -0.366089 -0.261265 -0.034420
v -0.359452 -0.292462 -0.034323
v -0.349375 -0.294032 -0.032953
v -0.333106 -0.290198 -0.030972
v -0.325498 -0.285933 -0.033477
v -0.328445 -0.255858 -0.039449
v -0.347938 -0.276162 -0.025907
v -0.333910 -0.281598 -0.029115
v -0.331701 -0.274429 -0.032892
v -0.341870 -0.269673 -0.026357
v -0.339382 -0.257727 -0.029923
v -0.350358 -0.261236 -0.027730
vn 0.1936 -0.7126 0.6744
vn 0.3551 -0.6832 0.6381
vn 0.3930 -0.6767 0.6226
vn 0.1292 0.9247 0.3581
vn 0.0624 0.8200 0.5689
vn 0.4021 0.8025 0.4407
vn 0.4054 0.8348 0.3724
vn 0.1617 0.6990 0.6966
vn 0.4803 -0.7276 0.4898
vn 0.2650 -0.8988 0.3493
vn 0.4044 -0.8426 -0.3555
vn 0.4032 -0.8420 -0.3584
vn 0.4045 -0.8423 -0.3562
vn -0.0998 0.5986 0.7948
vn -0.1426 0.3769 0.9152
vn -0.2300 0.5150 0.8258
vn 0.0889 0.6957 0.7128
vn -0.1593 0.7010 0.6952
vn -0.0557 0.8369 0.5445
vn 0.0810 0.9918 -0.0993
vn 0.2778 0.4715 0.8370
vn 0.3396 0.7867 0.5156
vn 0.5198 0.6656 0.5355
vn 0.4273 0.6341 0.6444
vn 0.0952 -0.9507 0.2950
vn -0.3288 -0.8995 -0.2877
vn -0.1814 -0.8715 0.4556
vn 0.3767 -0.8805 0.2876
vn 0.3325 -0.4075 0.8505
vn -0.0861 0.8873 0.4531
vn -0.0786 0.8764 0.4751
vn -0.0085 0.8427 0.5383
vn 0.0851 -0.8383 0.5385
vn 0.6146 -0.7624 0.2024
vn 0.6962 -0.4705 0.5422
vn -0.3622 0.6129 0.7023
vn 0.4956 0.7311 0.4688
vn -0.2541 -0.8111 0.5269
vn 0.7647 -0.5258 0.3726
vn 0.8474 -0.1406 0.5121
vn -0.2238 0.8067 0.5469
vn 0.6603 0.3571 0.6606
vn 0.5414 0.6377 0.5479
vn 0.1565 0.9131 0.3766
vn 0.8813 -0.2730 0.3857
vn 0.8776 -0.1431 0.4575
vn 0.7611 -0.0991 0.6410
vn 0.8440 0.0374 0.5351
vn 0.8894 -0.1292 0.4385
vn 0.7680 -0.0661 0.6371
vn 0.7821 0.0277 0.6225
vn 0.5371 -0.2097 0.8170
vn 0.7358 0.1545 0.6593
vn 0.7179 0.2831 0.6359
vn -0.0360 0.8477 0.5292
vn 0.3638 -0.9262 0.0991
vn 0.3065 -0.9250 0.2246
vn 0.2693 -0.8760 0.4001
vn -0.3904 0.6154 0.6847
vn 0.6761 0.0336 0.7360
vn 0.6582 0.1264 0.7421
vn 0.4001 0.6599 0.6359
vn 0.1857 -0.9158 0.3562
vn 0.8335 0.0266 0.5519
vn 0.9376 -0.1270 0.3238
vn 0.7312 0.1020 0.6745
vn -0.4824 0.4980 0.7206
vn 0.2445 -0.9169 0.3155
vn -0.5730 0.4414 0.6906
vn -0.4781 0.3770 0.7933
vn -0.5268 0.4280 0.7344
vn -0.4060 -0.0541 0.9123
vn -0.4543 -0.1068 0.8844
vn -0.8886 -0.0256 0.4579
vn -0.3025 -0.1302 0.9442
vn 0.2226 -0.7908 0.5701
vn 0.6072 -0.5660 0.5576
vn 0.7075 0.2269 0.6693
vn 0.7347 0.0808 0.6736
vn -0.7483 0.4078 0.5232
vn -0.5999 0.2931 0.7445
vn -0.0147 0.7526 0.6583
vn 0.4023 0.4769 0.7815
vn 0.6681 0.0822 0.7396
vn -0.3334 -0.2265 0.9152
vn -0.3985 -0.1569 0.9036
vn -0.5346 -0.0672 0.8425
vn -0.4347 0.0705 0.8978
vn 0.6799 0.2492 0.6897
vn -0.1586 0.6517 0.7417
vn 0.6026 0.1731 0.7791
vn -0.0005 -0.5384 0.8427
vn -0.2382 -0.2969 0.9247
vn 0.1376 -0.6622 0.7366
vn 0.2216 -0.6205 0.7523
vn -0.3958 0.3695 0.8407
vn -0.0437 -0.4681 0.8826
vn 0.0574 -0.5842 0.8095
vn 0.5590 -0.0237 0.8288
vn 0.5875 0.3102 0.7474
vn 0.5891 0.1977 0.7835
vn 0.3174 0.3801 0.8688
vn -0.1670 -0.3596 0.9180
vn 0.2123 -0.4032 0.8901
vn 0.5756 0.1775 0.7982
vn -0.1165 -0.1170 0.9863
vn 0.3799 0.0009 0.9250
vn -0.1825 0.2927 0.9387
vn 0.2662 0.1068 0.9580
usemtl None
s 1
f 4//1 1//2 5//3
f 11//4 12//5 10//6
f 12//5 3//7 10//6
f 12//5 2//8 3//7
f 16//9 15//10 4//1
f 18//11 19//12 17//13
f 31//14 25//15 30//16
f 6//17 31//14 37//18
f 37//18 7//19 6//17
f 11//4 9//20 22//21
f 2//8 12//5 23//22
f 23//22 24//23 13//24
f 2//8 23//22 13//24
f 27//25 26//26 14//27
f 34//28 15//10 16//9
f 16//9 4//1 5//3
f 17//13 19//12 18//11
f 28//29 16//9 5//3
f 7//19 32//30 8//31
f 21//32 8//31 32//30
f 22//21 21//32 32//30
f 11//4 22//21 32//30
f 33//33 27//25 51//34
f 26//26 27//25 33//33
f 27//25 15//10 34//28
f 34//28 51//34 27//25
f 29//35 16//9 28//29
f 31//14 30//16 53//36
f 12//5 11//4 23//22
f 24//23 23//22 50//37
f 51//34 39//38 33//33
f 34//28 16//9 59//39
f 59//39 16//9 29//35
f 35//40 59//39 29//35
f 31//14 53//36 37//18
f 7//19 37//18 45//41
f 45//41 32//30 7//19
f 48//42 24//23 50//37
f 48//42 38//43 24//23
f 11//4 32//30 49//44
f 23//22 11//4 49//44
f 59//39 36//45 40//46
f 35//40 36//45 59//39
f 52//47 41//48 42//49
f 52//47 42//49 43//50
f 52//47 43//50 65//51
f 43//50 55//52 65//51
f 46//53 47//54 48//42
f 48//42 47//54 38//43
f 49//44 32//30 61//55
f 50//37 23//22 49//44
f 57//56 56//57 39//38
f 57//56 39//38 51//34
f 58//58 57//56 51//34
f 34//28 58//58 51//34
f 37//18 53//36 60//59
f 54//60 65//51 55//52
f 65//51 54//60 62//61
f 62//61 54//60 46//53
f 62//61 46//53 48//42
f 76//62 50//37 49//44
f 56//57 57//56 73//63
f 59//39 40//46 74//64
f 74//64 63//65 59//39
f 40//46 41//48 74//64
f 64//66 41//48 52//47
f 64//66 74//64 41//48
f 65//51 64//66 52//47
f 60//59 53//36 67//67
f 45//41 37//18 60//59
f 45//41 61//55 32//30
f 76//62 49//44 61//55
f 50//37 76//62 48//42
f 73//63 72//68 56//57
f 57//56 58//58 73//63
f 59//39 58//58 34//28
f 75//69 84//70 66//71
f 67//67 66//71 84//70
f 60//59 67//67 84//70
f 64//66 65//51 62//61
f 62//61 48//42 76//62
f 68//72 82//73 69//74
f 70//75 69//74 82//73
f 73//63 77//76 72//68
f 58//58 59//39 79//77
f 59//39 63//65 79//77
f 74//64 64//66 89//78
f 80//79 89//78 64//66
f 64//66 62//61 80//79
f 75//69 71//80 78//81
f 84//70 75//69 78//81
f 45//41 86//82 61//55
f 90//83 62//61 76//62
f 87//84 62//61 90//83
f 68//72 88//85 82//73
f 82//73 88//85 93//86
f 82//73 93//86 83//87
f 82//73 83//87 78//81
f 78//81 83//87 92//88
f 84//70 78//81 92//88
f 85//89 79//77 63//65
f 85//89 63//65 74//64
f 85//89 74//64 89//78
f 60//59 81//90 45//41
f 87//84 90//83 105//91
f 76//62 61//55 90//83
f 87//84 80//79 62//61
f 88//85 91//92 101//93
f 95//94 91//92 77//76
f 77//76 73//63 95//94
f 95//94 73//63 97//95
f 97//95 73//63 58//58
f 79//77 97//95 58//58
f 80//79 87//84 89//78
f 60//59 84//70 100//96
f 86//82 45//41 81//90
f 61//55 86//82 90//83
f 88//85 101//93 93//86
f 102//97 101//93 91//92
f 91//92 95//94 102//97
f 83//87 93//86 92//88
f 97//95 96//98 95//94
f 104//99 97//95 79//77
f 98//100 89//78 87//84
f 87//84 99//101 98//100
f 104//99 79//77 85//89
f 85//89 98//100 104//99
f 89//78 98//100 85//89
f 100//96 84//70 92//88
f 81//90 60//59 100//96
f 87//84 105//91 99//101
f 110//102 105//91 90//83
f 86//82 110//102 90//83
f 94//103 93//86 101//93
f 102//97 95//94 96//98
f 96//98 97//95 103//104
f 103//104 97//95 104//99
f 104//99 98//100 108//105
f 108//105 98//100 99//101
f 86//82 81//90 110//102
f 101//93 102//97 106//106
f 94//103 101//93 106//106
f 106//106 93//86 94//103
f 106//106 92//88 93//86
f 102//97 96//98 103//104
f 104//99 107//107 103//104
f 107//107 104//99 108//105
f 100//96 92//88 106//106
f 81//90 100//96 111//108
f 99//101 110//102 109//109
f 109//109 108//105 99//101
f 105//91 110//102 99//101
f 102//97 103//104 106//106
f 107//107 106//106 103//104
f 106//106 107//107 109//109
f 109//109 107//107 108//105
f 100//96 106//106 111//108
f 110//102 81//90 111//108
f 111//108 109//109 110//102
f 109//109 111//108 106//106
l 44 53
l 20 30
