# Blender v3.6.0 OBJ File: ''
# www.blender.org
mtllib terrain01_rock5_decimate-005.mtl
o terrain01_rock5
v -0.368473 -1.225860 -0.091973
v -0.363051 -1.222555 -0.091719
v -0.353925 -1.218777 -0.092086
v -0.340464 -1.223702 -0.091466
v -0.347701 -1.223513 -0.093795
v -0.346871 -1.209845 -0.091662
v -0.335882 -1.218340 -0.091862
v -0.327138 -1.218532 -0.093311
v -0.316863 -1.213252 -0.093061
v -0.311392 -1.213349 -0.093477
v -0.306042 -1.198094 -0.091898
v -0.363303 -1.223480 -0.093788
v -0.337453 -1.223480 -0.094092
v -0.327113 -1.223480 -0.094595
v -0.373643 -1.224810 -0.086803
v -0.368998 -1.223342 -0.087489
v -0.340822 -1.202859 -0.087435
v -0.306422 -1.207952 -0.093857
v -0.306430 -1.183029 -0.087355
v -0.383983 -1.225320 -0.081633
v -0.377064 -1.223572 -0.081606
v -0.373661 -1.223442 -0.083876
v -0.368154 -1.214241 -0.069778
v -0.344154 -1.204688 -0.082797
v -0.322621 -1.189477 -0.081018
v -0.306458 -1.172678 -0.081765
v -0.451215 -1.223550 -0.079823
v -0.395281 -1.223393 -0.077004
v -0.383973 -1.223542 -0.079148
v -0.344345 -1.206424 -0.072491
v -0.314723 -1.173820 -0.072546
v -0.306428 -1.165235 -0.079278
v -0.307734 -1.152179 -0.077703
v -0.451084 -1.078828 -0.076591
v -0.440853 -1.076080 -0.076463
v -0.305611 -1.135467 -0.076462
v -0.306292 -1.105783 -0.076485
v -0.306295 -1.084148 -0.076505
v -0.306405 -1.078736 -0.078392
v -0.433677 -1.223529 -0.078831
v -0.306433 -1.156270 -0.078646
v -0.404036 -1.213969 -0.070524
v -0.325994 -1.190426 -0.074391
v -0.312817 -1.161314 -0.069196
v -0.440875 -1.078662 -0.073242
v -0.430632 -1.078742 -0.071783
v -0.421246 -1.078161 -0.071434
v -0.409862 -1.076613 -0.071418
v -0.314010 -1.145680 -0.067303
v -0.306439 -1.129084 -0.071340
v -0.306115 -1.109384 -0.071226
v -0.318277 -1.092362 -0.070848
v -0.348534 -1.206380 -0.066083
v -0.315187 -1.172280 -0.060030
v -0.434941 -1.085472 -0.060053
v -0.409818 -1.079016 -0.069536
v -0.400634 -1.078498 -0.065966
v -0.389205 -1.077830 -0.066189
v -0.376078 -1.077692 -0.066535
v -0.310064 -1.126730 -0.067420
v -0.352971 -1.075897 -0.066120
v -0.337453 -1.076220 -0.066123
v -0.318169 -1.097238 -0.065620
v -0.329110 -1.078717 -0.066375
v -0.435062 -1.183833 -0.062811
v -0.367931 -1.202384 -0.059445
v -0.347835 -1.078752 -0.063569
v -0.337608 -1.079311 -0.064622
v -0.330869 -1.086902 -0.059661
v -0.451275 -1.162372 -0.058095
v -0.450986 -1.150926 -0.056635
v -0.398288 -1.184954 -0.054301
v -0.343365 -1.188688 -0.055146
v -0.319434 -1.181194 -0.057136
v -0.451116 -1.095875 -0.058291
v -0.410557 -1.084746 -0.055849
v -0.386367 -1.086291 -0.057671
v -0.311198 -1.138433 -0.055095
v -0.310805 -1.105887 -0.042201
v -0.321281 -1.095586 -0.044374
v -0.422378 -1.170520 -0.053490
v -0.372781 -1.183140 -0.050073
v -0.317616 -1.153410 -0.047722
v -0.451073 -1.112580 -0.051806
v -0.422620 -1.097482 -0.042977
v -0.311538 -1.136497 -0.043764
v -0.349261 -1.088930 -0.044858
v -0.451171 -1.136510 -0.051567
v -0.334659 -1.163747 -0.042875
v -0.326418 -1.168063 -0.047568
v -0.419766 -1.142834 -0.044208
v -0.429391 -1.115275 -0.041584
v -0.401737 -1.153757 -0.042456
v -0.353624 -1.149131 -0.033767
v -0.374532 -1.149176 -0.036652
v -0.317231 -1.135184 -0.034005
v -0.407208 -1.098361 -0.039904
v -0.380903 -1.101454 -0.031164
v -0.311853 -1.114266 -0.034535
v -0.325692 -1.096536 -0.029622
v -0.389490 -1.129523 -0.031088
v -0.398219 -1.105778 -0.033840
v -0.338129 -1.140001 -0.028845
v -0.319928 -1.105389 -0.026840
v -0.388934 -1.112926 -0.028028
v -0.357864 -1.095609 -0.031888
v -0.359337 -1.123568 -0.019635
v -0.322603 -1.120888 -0.022694
v -0.368828 -1.106941 -0.022142
v -0.346664 -1.109238 -0.018713
v -0.338085 -1.116899 -0.016533
vn 0.4698 -0.7714 0.4292
vn 0.4513 -0.7745 0.4433
vn 0.4848 -0.8189 0.3072
vn 0.3060 -0.5576 0.7716
vn 0.1095 -0.1332 0.9850
vn -0.0385 -0.0717 0.9967
vn 0.1213 0.0429 0.9917
vn -0.0153 0.0866 0.9961
vn 0.6010 -0.4656 0.6496
vn 0.1332 -0.1739 0.9757
vn 0.0911 -0.2389 0.9668
vn 0.1048 -0.2493 0.9627
vn 0.3861 -0.8194 0.4237
vn 0.4015 -0.7091 0.5796
vn 0.5604 -0.8241 0.0823
vn 0.1422 -0.1605 0.9767
vn 0.2561 -0.3167 0.9133
vn 0.0759 0.0002 0.9971
vn 0.5463 -0.6226 0.5603
vn 0.4581 -0.3452 0.8192
vn 0.3306 -0.8467 0.4170
vn 0.3293 -0.8546 0.4015
vn 0.2074 -0.7791 0.5916
vn 0.6516 -0.3920 0.6495
vn 0.2392 -0.8377 0.4910
vn 0.1480 -0.8020 0.5787
vn 0.1992 -0.7974 0.5696
vn 0.4949 -0.8564 0.1472
vn 0.7152 -0.6725 0.1903
vn 0.8280 -0.4438 0.3428
vn 0.7827 -0.1533 0.6032
vn 0.4493 -0.0626 0.8912
vn 0.8216 -0.0423 0.5685
vn -0.1149 -0.3826 0.9168
vn -0.0445 -0.5730 0.8183
vn -0.0873 -0.5150 0.8528
vn -0.0048 -0.6214 0.7835
vn 0.9284 -0.0662 0.3656
vn -0.2126 0.7631 0.6103
vn -0.2256 0.7241 0.6517
vn -0.2219 0.7749 0.5919
vn 0.9440 -0.1377 0.2998
vn 0.7816 -0.1993 0.5910
vn 0.9208 -0.1350 0.3658
vn 0.5560 -0.3772 0.7406
vn 0.9070 0.3236 0.2694
vn 0.7199 0.4067 0.5624
vn 0.6052 0.2817 0.7446
vn 0.4366 0.1459 0.8878
vn 0.4110 0.4126 0.8129
vn 0.4460 0.3028 0.8422
vn -0.1879 -0.3725 0.9088
vn -0.2706 -0.3008 0.9145
vn 0.4154 -0.7224 0.5528
vn 0.0258 -0.5462 0.8372
vn 0.9080 -0.2720 0.3186
vn 0.6987 -0.5251 0.4860
vn -0.3857 0.5527 0.7387
vn -0.0675 0.8759 0.4778
vn -0.2393 0.7759 0.5837
vn -0.1102 0.8912 0.4400
vn 0.0620 0.7162 0.6952
vn -0.0211 0.8134 0.5814
vn 0.7178 0.6428 0.2675
vn -0.1605 -0.4164 0.8949
vn 0.1983 -0.5481 0.8125
vn -0.0417 0.8332 0.5514
vn -0.0281 0.8340 0.5511
vn -0.0369 0.7958 0.6044
vn -0.0105 0.7077 0.7064
vn -0.0766 0.7852 0.6145
vn 0.9765 -0.2145 0.0199
vn -0.0611 0.6016 0.7965
vn 0.0274 0.8471 0.5307
vn 0.4807 0.7382 0.4732
vn 0.2006 0.6646 0.7198
vn 0.1542 0.4254 0.8918
vn -0.2258 -0.3556 0.9070
vn 0.7921 -0.3545 0.4970
vn -0.2350 0.4785 0.8460
vn 0.8916 0.3982 0.2157
vn 0.6105 0.7736 0.1700
vn -0.9849 0.0461 -0.1671
vn -0.3352 -0.1539 0.9295
vn -0.0470 -0.4231 0.9049
vn 0.4181 -0.3702 0.8296
vn 0.9045 0.0360 0.4251
vn 0.0121 0.8941 0.4477
vn -0.2712 -0.2436 0.9312
vn -0.1996 -0.3340 0.9212
vn 0.2226 -0.4500 0.8649
vn -0.3302 0.0377 0.9432
vn -0.4273 0.1688 0.8882
vn -0.1565 0.5914 0.7910
vn -0.2179 0.6917 0.6886
vn 0.9358 -0.2246 0.2717
vn -0.1497 -0.4026 0.9030
vn -0.0275 -0.4709 0.8818
vn 0.6243 -0.3810 0.6820
vn -0.2984 0.2549 0.9198
vn -0.1170 0.8311 0.5437
vn 0.3758 0.7406 0.5569
vn 0.1498 -0.4835 0.8624
vn -0.2770 -0.2338 0.9320
vn 0.5958 0.4001 0.6964
vn -0.3921 0.0683 0.9174
vn 0.5117 -0.1807 0.8400
vn -0.1591 -0.2391 0.9579
vn -0.2272 0.3743 0.8990
vn -0.0410 0.4047 0.9135
vn 0.1401 -0.0256 0.9898
usemtl None
s 1
f 2//1 1//2 12//3
f 6//4 3//5 5//6
f 7//7 4//8 13//9
f 7//7 5//6 4//8
f 6//4 5//6 7//7
f 9//10 8//11 14//12
f 16//13 1//2 2//1
f 2//1 3//5 6//4
f 17//14 24//15 6//4
f 6//4 7//7 8//11
f 6//4 8//11 17//14
f 8//11 9//10 17//14
f 17//14 9//10 18//16
f 17//14 18//16 11//17
f 9//10 10//18 18//16
f 25//19 11//17 19//20
f 22//21 15//22 16//13
f 23//23 22//21 16//13
f 2//1 23//23 16//13
f 2//1 6//4 24//15
f 24//15 17//14 25//19
f 17//14 11//17 25//19
f 25//19 19//20 26//24
f 21//25 29//26 20//27
f 29//26 21//25 23//23
f 23//23 21//25 22//21
f 23//23 2//1 24//15
f 23//23 24//15 30//28
f 30//28 24//15 25//19
f 43//29 25//19 31//30
f 31//30 25//19 26//24
f 26//24 32//31 31//30
f 32//31 41//32 33//33
f 27//34 40//35 42//36
f 40//35 28//37 42//36
f 29//26 23//23 28//37
f 30//28 25//19 43//29
f 44//38 31//30 32//31
f 44//38 32//31 33//33
f 35//39 34//40 45//41
f 49//42 33//33 36//43
f 49//42 36//43 60//44
f 50//45 60//44 36//43
f 51//46 37//47 52//48
f 52//48 37//47 38//49
f 64//50 38//49 39//51
f 52//48 38//49 64//50
f 27//34 42//36 65//52
f 23//23 42//36 28//37
f 65//52 70//53 27//34
f 53//54 66//55 23//23
f 23//23 30//28 53//54
f 43//29 31//30 54//56
f 54//56 74//57 43//29
f 31//30 44//38 54//56
f 49//42 44//38 33//33
f 45//41 34//40 75//58
f 46//59 45//41 55//60
f 47//61 46//59 55//60
f 55//60 48//62 47//61
f 55//60 56//63 48//62
f 50//45 51//46 60//44
f 51//46 52//48 63//64
f 72//65 65//52 42//36
f 66//55 42//36 23//23
f 73//66 53//54 30//28
f 73//66 30//28 74//57
f 74//57 30//28 43//29
f 45//41 75//58 55//60
f 56//63 55//60 76//67
f 57//68 56//63 76//67
f 57//68 77//69 58//70
f 59//71 58//70 77//69
f 49//42 60//44 78//72
f 61//73 59//71 67//74
f 63//64 52//48 69//75
f 68//76 69//75 64//50
f 69//75 52//48 64//50
f 62//77 68//76 64//50
f 72//65 42//36 66//55
f 70//53 65//52 81//78
f 81//78 65//52 72//65
f 66//55 53//54 73//66
f 83//79 54//56 44//38
f 44//38 49//42 83//79
f 55//60 75//58 85//80
f 85//80 76//67 55//60
f 57//68 76//67 77//69
f 83//79 49//42 78//72
f 60//44 51//46 79//81
f 69//75 80//82 63//64
f 51//46 63//64 79//81
f 71//83 70//53 88//84
f 82//85 72//65 66//55
f 73//66 82//85 66//55
f 73//66 74//57 90//86
f 90//86 74//57 54//56
f 54//56 83//79 90//86
f 78//72 60//44 99//87
f 79//81 99//87 60//44
f 77//69 87//88 59//71
f 67//74 59//71 87//88
f 68//76 67//74 87//88
f 79//81 63//64 80//82
f 87//88 69//75 68//76
f 70//53 81//78 91//89
f 72//65 82//85 93//90
f 81//78 72//65 93//90
f 81//78 93//90 91//89
f 82//85 73//66 89//91
f 90//86 89//91 73//66
f 91//89 88//84 70//53
f 88//84 91//89 92//92
f 88//84 92//92 84//93
f 85//80 75//58 84//93
f 85//80 97//94 76//67
f 77//69 76//67 97//94
f 98//95 77//69 97//94
f 78//72 86//96 83//79
f 99//87 86//96 78//72
f 87//88 77//69 98//95
f 95//97 93//90 82//85
f 82//85 94//98 95//97
f 94//98 82//85 89//91
f 89//91 90//86 83//79
f 89//91 83//79 96//99
f 85//80 84//93 92//92
f 98//95 97//94 102//100
f 96//99 83//79 86//96
f 106//101 87//88 98//95
f 69//75 87//88 100//102
f 80//82 69//75 100//102
f 94//98 89//91 103//103
f 101//104 91//89 93//90
f 101//104 92//92 91//89
f 95//97 101//104 93//90
f 92//92 101//104 102//100
f 97//94 85//80 92//92
f 92//92 102//100 97//94
f 86//96 99//87 96//99
f 100//102 87//88 106//101
f 104//105 80//82 100//102
f 99//87 79//81 104//105
f 104//105 79//81 80//82
f 102//100 101//104 105//106
f 105//106 98//95 102//100
f 96//99 103//103 89//91
f 104//105 108//107 99//87
f 101//104 107//108 109//109
f 109//109 105//106 101//104
f 107//108 101//104 95//97
f 107//108 95//97 94//98
f 103//103 96//99 108//107
f 108//107 96//99 99//87
f 109//109 98//95 105//106
f 106//101 98//95 109//109
f 110//110 106//101 109//109
f 106//101 110//110 100//102
f 107//108 94//98 103//103
f 107//108 110//110 109//109
f 111//111 107//108 103//103
f 108//107 111//111 103//103
f 111//111 108//107 104//105
f 110//110 111//111 100//102
f 100//102 111//111 104//105
f 107//108 111//111 110//110
