# Blender v3.6.0 OBJ File: ''
# www.blender.org
mtllib terrain01_rock1_decimate-005.mtl
o terrain01_rock1
v -0.550674 -1.641589 -0.059411
v -0.904235 -1.672367 -0.059535
v -0.846890 -1.648882 -0.059341
v -0.817584 -1.643552 -0.059281
v -0.662402 -1.847550 -0.053172
v -0.655663 -1.843433 -0.053416
v -0.606632 -1.847069 -0.052813
v -0.600332 -1.846910 -0.053172
v -0.596700 -1.843242 -0.053577
v -0.575502 -1.847625 -0.053050
v -0.574093 -1.843265 -0.053326
v -0.612282 -1.827180 -0.051231
v -0.612769 -1.843275 -0.053442
v -0.579742 -1.825820 -0.053295
v -0.581674 -1.843283 -0.053179
v -0.570763 -1.796642 -0.053559
v -0.550633 -1.779986 -0.053449
v -0.550482 -1.757998 -0.052746
v -0.550165 -1.743780 -0.053108
v -0.780283 -1.642337 -0.053324
v -0.736055 -1.643925 -0.053341
v -0.570789 -1.644643 -0.053199
v -0.556925 -1.644540 -0.055636
v -0.718091 -1.640526 -0.053349
v -0.575504 -1.642190 -0.053172
v -0.550704 -1.843284 -0.055185
v -0.550660 -1.809576 -0.057962
v -0.718200 -1.847097 -0.046772
v -0.712636 -1.843235 -0.047191
v -0.684478 -1.843223 -0.048778
v -0.685494 -1.825151 -0.042087
v -0.651165 -1.811155 -0.042547
v -0.590987 -1.797103 -0.046335
v -0.583487 -1.772453 -0.047606
v -0.574069 -1.762966 -0.044327
v -0.569030 -1.755199 -0.046033
v -0.564032 -1.741702 -0.045724
v -0.768678 -1.644335 -0.053554
v -0.727554 -1.652299 -0.039448
v -0.712053 -1.642181 -0.046889
v -0.550442 -1.726696 -0.048457
v -0.551068 -1.711918 -0.045967
v -0.550229 -1.699335 -0.046537
v -0.614766 -1.644667 -0.047358
v -0.608113 -1.644515 -0.046964
v -0.595833 -1.644518 -0.046762
v -0.575343 -1.644360 -0.051188
v -0.550868 -1.678288 -0.049735
v -0.550820 -1.655787 -0.053004
v -0.622782 -1.641138 -0.048978
v -0.600316 -1.642855 -0.046850
v -0.662561 -1.843346 -0.052092
v -0.904676 -1.685925 -0.041652
v -0.856463 -1.662636 -0.043020
v -0.817403 -1.645321 -0.057238
v -0.804921 -1.644611 -0.046957
v -0.792760 -1.643376 -0.046971
v -0.625699 -1.657565 -0.039445
v -0.749635 -1.845764 -0.041711
v -0.726131 -1.842050 -0.043184
v -0.718967 -1.836797 -0.041120
v -0.671218 -1.819149 -0.039415
v -0.630330 -1.799994 -0.037154
v -0.593361 -1.782145 -0.047025
v -0.750170 -1.650972 -0.024733
v -0.709829 -1.644690 -0.041272
v -0.561755 -1.710050 -0.038545
v -0.582709 -1.654041 -0.044882
v -0.635505 -1.640132 -0.034668
v -0.617753 -1.655890 -0.046194
v -0.611431 -1.671038 -0.039037
v -0.615179 -1.669521 -0.036317
v -0.629139 -1.648725 -0.033097
v -0.615423 -1.671512 -0.034049
v -0.611380 -1.671752 -0.029657
v -0.594038 -1.677875 -0.034934
v -0.615991 -1.667682 -0.028895
v -0.568700 -1.721649 -0.035205
v -0.570715 -1.728791 -0.025340
v -0.570617 -1.724550 -0.030328
v -0.577588 -1.690499 -0.035276
v -0.755609 -1.842854 -0.034894
v -0.602168 -1.784274 -0.035919
v -0.581011 -1.770082 -0.029902
v -0.566734 -1.756746 -0.030041
v -0.564224 -1.743783 -0.031077
v -0.649988 -1.641501 -0.034547
v -0.785031 -1.650544 -0.017471
v -0.693415 -1.644551 -0.036577
v -0.679471 -1.644249 -0.034681
v -0.767922 -1.845260 -0.034551
v -0.668752 -1.641134 -0.034592
v -0.579390 -1.702397 -0.028126
v -0.589712 -1.688816 -0.027535
v -0.595671 -1.681354 -0.028958
v -0.665417 -1.810010 -0.025618
v -0.684644 -1.652986 -0.025998
v -0.656262 -1.640790 -0.028276
v -0.571590 -1.734059 -0.018058
v -0.578027 -1.716237 -0.024808
v -0.596843 -1.681315 -0.021954
v -0.575915 -1.755058 -0.020379
v -0.581731 -1.696373 -0.020608
v -0.611545 -1.661988 -0.015950
v -0.712055 -1.831591 -0.034022
v -0.642874 -1.795999 -0.029943
v -0.624984 -1.772979 -0.018880
v -0.589648 -1.756969 -0.012524
v -0.729573 -1.661539 -0.008521
v -0.718603 -1.661572 -0.003418
v -0.630344 -1.643446 -0.017298
v -0.805014 -1.843692 -0.021589
v -0.793409 -1.842441 -0.022755
v -0.767929 -1.843199 -0.031825
v -0.904366 -1.706728 -0.018142
v -0.802263 -1.658561 -0.001036
v -0.608788 -1.672097 -0.012648
v -0.597329 -1.681894 -0.013092
v -0.585672 -1.742791 -0.006494
v -0.577960 -1.727416 -0.013767
v -0.653658 -1.645357 -0.002391
v -0.641012 -1.640543 -0.012038
v -0.583364 -1.711959 -0.015142
v -0.586147 -1.691240 -0.011225
v -0.583954 -1.733407 -0.006989
v -0.587256 -1.694766 -0.004592
v -0.691488 -1.809031 -0.009601
v -0.663112 -1.795394 -0.013897
v -0.769448 -1.652557 -0.006017
v -0.696829 -1.653828 0.003345
v -0.829605 -1.843654 -0.009114
v -0.904477 -1.839330 -0.009723
v -0.910781 -1.830850 -0.009723
v -0.727183 -1.811787 0.002520
v -0.910242 -1.719179 -0.009799
v -0.826372 -1.675452 0.006506
v -0.904477 -1.843260 -0.012367
v -0.608973 -1.671401 -0.000513
v -0.615105 -1.664860 0.003583
v -0.684905 -1.775798 0.004051
v -0.596751 -1.684881 0.005921
v -0.624578 -1.645684 0.005102
v -0.620151 -1.655242 -0.007894
v -0.618282 -1.656038 0.006299
v -0.703542 -1.790351 0.008405
v -0.653587 -1.768567 -0.004587
v -0.750177 -1.662524 0.026121
v -0.608019 -1.728895 0.005243
v -0.594171 -1.718227 0.000144
v -0.631049 -1.645127 0.021870
v -0.904344 -1.818294 0.002376
v -0.893929 -1.843513 -0.005213
v -0.873295 -1.843338 0.001046
v -0.849706 -1.843363 -0.000637
v -0.825384 -1.819480 0.019045
v -0.904339 -1.732324 0.002005
v -0.861554 -1.699851 0.004270
v -0.904477 -1.830850 -0.004239
v -0.609927 -1.669431 0.006209
v -0.721915 -1.792636 0.016322
v -0.635168 -1.742494 0.004014
v -0.666937 -1.646071 0.014914
v -0.618625 -1.654348 0.015623
v -0.617571 -1.673469 0.016976
v -0.616981 -1.667261 0.012796
v -0.601886 -1.684546 0.012216
v -0.657349 -1.733233 0.017948
v -0.634204 -1.717459 0.020184
v -0.699519 -1.654410 0.035647
v -0.643139 -1.646195 0.024466
v -0.612428 -1.692433 0.019406
v -0.866390 -1.818407 0.017759
v -0.904489 -1.762156 0.011049
v -0.868231 -1.736801 0.022877
v -0.758581 -1.806376 0.023639
v -0.904456 -1.803593 0.009186
v -0.621675 -1.661341 0.022726
v -0.622147 -1.675016 0.021767
v -0.713127 -1.755667 0.029837
v -0.690710 -1.744487 0.023869
v -0.673881 -1.720982 0.029264
v -0.728355 -1.660497 0.037418
v -0.738335 -1.763924 0.034484
v -0.633509 -1.689994 0.025671
v -0.674863 -1.652927 0.031562
v -0.863075 -1.766744 0.031267
v -0.778954 -1.676000 0.041129
v -0.740637 -1.794411 0.025616
v -0.668738 -1.698527 0.034712
v -0.644798 -1.655848 0.036717
v -0.631943 -1.652005 0.026819
v -0.726328 -1.732663 0.046695
v -0.688567 -1.720907 0.037300
v -0.657827 -1.678212 0.039219
v -0.791289 -1.787979 0.044544
v -0.826907 -1.786760 0.040616
v -0.813062 -1.740501 0.053122
v -0.765778 -1.755156 0.050890
v -0.745550 -1.737998 0.048483
v -0.747451 -1.677412 0.056114
v -0.687442 -1.694679 0.044297
v -0.659473 -1.664626 0.041210
v -0.774697 -1.770537 0.051112
v -0.708665 -1.711463 0.055481
v -0.710092 -1.700887 0.060595
v -0.691481 -1.667441 0.048193
v -0.807117 -1.762443 0.054931
v -0.794117 -1.704392 0.057526
v -0.827439 -1.698336 0.029461
v -0.791826 -1.731710 0.065431
v -0.771935 -1.739084 0.063097
v -0.758660 -1.718094 0.063992
v -0.704564 -1.665417 0.052510
v -0.721212 -1.675723 0.058861
v -0.775600 -1.731580 0.065250
v -0.774182 -1.725327 0.064720
v -0.776520 -1.719023 0.065461
v -0.760001 -1.700390 0.064164
v -0.727394 -1.687184 0.064362
v -0.788939 -1.719097 0.065006
vn 0.1289 -0.2996 0.9453
vn 0.0053 -0.0893 0.9960
vn 0.0754 -0.2411 0.9676
vn 0.1092 -0.0499 0.9928
vn 0.0292 -0.0352 0.9990
vn -0.0011 0.0154 0.9999
vn 0.0192 0.0570 0.9982
vn 0.0450 0.0278 0.9986
vn 0.1018 0.0618 0.9929
vn 0.1401 -0.0365 0.9895
vn 0.3449 -0.1536 0.9260
vn 0.2183 -0.1062 0.9701
vn 0.1869 -0.1516 0.9706
vn 0.2870 0.3010 0.9094
vn 0.3376 0.3843 0.8593
vn 0.2420 0.3437 0.9074
vn 0.1801 -0.2383 0.9543
vn 0.1622 -0.3015 0.9396
vn 0.0143 0.1600 0.9870
vn 0.0555 0.0552 0.9969
vn 0.0919 -0.3590 0.9288
vn 0.2583 -0.5788 0.7734
vn 0.4685 -0.5691 0.6757
vn 0.5302 -0.2210 0.8185
vn 0.6645 -0.5462 0.5100
vn 0.4813 -0.1569 0.8624
vn 0.3667 -0.0447 0.9292
vn 0.7631 -0.1558 0.6272
vn 0.4567 -0.0952 0.8845
vn -0.2365 0.8149 0.5292
vn 0.0259 0.9131 0.4069
vn -0.0452 0.9145 0.4020
vn 0.5088 -0.2139 0.8339
vn 0.2789 0.4331 0.8571
vn 0.1996 0.3540 0.9137
vn 0.3494 0.4236 0.8357
vn 0.3410 0.6480 0.6810
vn -0.3463 0.7994 0.4910
vn -0.3444 0.7636 0.5462
vn -0.3332 0.7253 0.6024
vn -0.1987 0.8023 0.5629
vn -0.2219 0.8514 0.4752
vn -0.1364 0.7428 0.6554
vn 0.1182 -0.7347 0.6680
vn 0.1823 -0.5857 0.7897
vn 0.2491 -0.4516 0.8568
vn 0.2372 -0.8035 0.5460
vn 0.2317 -0.5708 0.7877
vn 0.1833 -0.6515 0.7362
vn 0.2963 -0.7003 0.6495
vn 0.1703 -0.5212 0.8363
vn 0.4150 -0.5491 0.7254
vn -0.0599 0.9639 0.2593
vn 0.0746 0.9717 0.2240
vn 0.1204 0.9641 0.2366
vn 0.1484 0.9535 0.2623
vn -0.3007 0.8195 0.4879
vn -0.2119 0.8674 0.4503
vn 0.7426 -0.0653 0.6665
vn 0.5659 -0.0599 0.8223
vn 0.5553 0.0547 0.8299
vn 0.4641 0.1247 0.8769
vn 0.4439 0.3234 0.8357
vn 0.8227 0.4509 0.3461
vn 0.2829 0.7555 0.5910
vn 0.3317 0.2310 0.9147
vn 0.0849 0.2410 0.9668
vn 0.4525 0.4622 0.7626
vn -0.0279 0.0865 0.9959
vn 0.3089 0.5518 0.7747
vn 0.0145 0.2906 0.9567
vn -0.0165 0.0086 0.9998
vn 0.4226 0.1364 0.8960
vn 0.7033 0.6344 -0.3207
vn 0.6259 0.7635 0.1593
vn 0.8158 0.5685 0.1067
vn 0.5868 0.8063 -0.0743
vn 0.1831 -0.8260 0.5331
vn 0.1655 -0.8463 0.5063
vn 0.3598 -0.6139 0.7027
vn 0.8427 -0.4611 0.2780
vn 0.5404 -0.7491 0.3832
vn 0.9705 0.0425 0.2371
vn 0.8764 0.3594 0.3205
vn 0.8812 0.2773 0.3830
vn 0.5131 0.8171 0.2629
vn -0.2243 0.9315 0.2862
vn -0.0313 0.9693 0.2437
vn 0.6775 0.6634 0.3177
vn 0.6064 0.7186 0.3404
vn 0.7766 0.3083 0.5494
vn 0.8056 0.2643 0.5303
vn 0.4098 -0.7338 0.5418
vn 0.2357 -0.5883 0.7735
vn -0.2071 0.9165 0.3424
vn -0.1807 0.6905 0.7004
vn -0.1809 0.7451 0.6420
vn -0.3283 0.8750 0.3557
vn 0.0385 0.9964 0.0750
vn -0.0230 0.9992 -0.0334
vn 0.6687 0.7405 0.0666
vn 0.8092 0.1313 0.5726
vn 0.5605 -0.5150 0.6485
vn 0.9186 0.3872 0.0785
vn 0.8493 0.5203 -0.0895
vn 0.3084 -0.5558 0.7720
vn 0.0583 0.9780 0.2005
vn -0.1596 0.9828 0.0929
vn 0.4377 0.8851 -0.1581
vn -0.0741 0.9926 0.0966
vn 0.1510 -0.8463 0.5109
vn 0.1701 -0.7858 0.5946
vn -0.4018 0.6826 0.6105
vn -0.2702 0.8713 0.4097
vn 0.7162 0.3058 0.6273
vn 0.8754 0.1172 0.4689
vn 0.8417 0.5393 -0.0246
vn 0.6555 0.7517 0.0731
vn 0.4682 -0.2811 0.8377
vn 0.8131 0.5578 0.1666
vn 0.3239 -0.6802 0.6575
vn 0.4461 -0.5002 0.7422
vn 0.3488 -0.4851 0.8019
vn -0.1904 0.9763 0.1029
vn 0.8638 0.1246 0.4882
vn 0.6266 0.0407 0.7783
vn 0.2501 -0.5107 0.8226
vn 0.0256 0.9668 0.2544
vn -0.2767 0.9597 -0.0487
vn 0.7852 0.6177 0.0433
vn -0.5182 -0.4694 0.7150
vn -0.4992 -0.4837 0.7189
vn -0.3851 -0.4484 0.8067
vn 0.1437 -0.8273 0.5431
vn 0.2125 -0.6935 0.6884
vn 0.2771 -0.7335 0.6206
vn -0.4739 0.6057 0.6392
vn -0.4468 0.7158 0.5367
vn 0.6368 -0.0811 0.7667
vn 0.3966 -0.3901 0.8310
vn 0.7623 0.4786 0.4357
vn 0.8011 0.5958 0.0575
vn 0.8286 0.5444 0.1303
vn 0.6043 0.7965 0.0198
vn 0.7346 0.6375 0.2322
vn 0.9017 0.4276 -0.0647
vn 0.3827 -0.4796 0.7896
vn 0.4161 -0.4258 0.8034
vn -0.1032 0.9638 0.2460
vn 0.3227 -0.3399 0.8834
vn 0.6768 0.2783 0.6816
vn 0.3226 0.8173 0.4774
vn -0.5898 -0.4385 0.6781
vn -0.4876 -0.4353 0.7568
vn -0.3570 -0.4004 0.8439
vn 0.0919 -0.6575 0.7479
vn 0.2773 -0.7491 0.6016
vn 0.0567 -0.6808 0.7303
vn 0.1886 -0.7992 0.5707
vn -0.4209 0.3951 0.8166
vn -0.4273 0.5594 0.7103
vn 0.8487 0.2438 0.4693
vn 0.8542 0.4073 0.3232
vn 0.2832 -0.4743 0.8335
vn 0.5868 0.4554 0.6696
vn 0.3082 -0.3335 0.8909
vn -0.0903 0.9352 0.3424
vn -0.1348 0.9865 0.0928
vn 0.0256 0.9134 0.4062
vn 0.4218 -0.1115 0.8998
vn -0.1234 -0.5288 0.8398
vn -0.1969 -0.4309 0.8807
vn -0.3603 -0.2474 0.8994
vn -0.4109 -0.0213 0.9114
vn -0.4234 0.1293 0.8967
vn -0.4671 0.2940 0.8339
vn -0.4944 0.4991 0.7116
vn 0.5238 0.0695 0.8490
vn 0.7179 0.0901 0.6903
vn 0.3819 -0.4722 0.7945
vn 0.3652 -0.4209 0.8303
vn 0.3844 -0.4557 0.8029
vn 0.3544 -0.3665 0.8603
vn -0.1757 0.9378 0.2995
vn 0.4584 0.4557 0.7630
vn 0.3426 -0.1820 0.9217
vn 0.3602 -0.3520 0.8639
vn 0.0047 0.8276 0.5613
vn -0.2234 -0.3898 0.8934
vn -0.3121 0.7406 0.5951
vn 0.3955 -0.5230 0.7550
vn 0.3421 -0.3293 0.8801
vn 0.3250 -0.2109 0.9219
vn 0.2687 0.3913 0.8802
vn 0.2397 -0.3794 0.8937
vn 0.2626 -0.4701 0.8426
vn 0.3432 -0.4246 0.8378
vn 0.4694 -0.1743 0.8656
vn 0.2925 0.3812 0.8770
vn 0.1674 0.2306 0.9585
vn -0.4873 0.1026 0.8672
vn 0.0461 -0.5296 0.8470
vn 0.4891 -0.3313 0.8068
vn 0.3170 -0.4193 0.8507
vn -0.1990 0.6416 0.7408
vn 0.1266 0.5941 0.7944
vn 0.3726 -0.1680 0.9126
vn -0.0436 0.5770 0.8156
vn -0.2100 -0.2507 0.9450
vn -0.4183 0.4054 0.8128
vn 0.2387 -0.3160 0.9182
vn 0.1854 -0.1991 0.9623
vn -0.3367 -0.0718 0.9389
vn 0.2654 -0.1439 0.9533
vn 0.1339 -0.0873 0.9871
vn -0.0449 0.1469 0.9881
vn -0.1128 0.2243 0.9680
vn 0.0602 0.2038 0.9771
vn -0.3901 0.3046 0.8689
usemtl None
s 1
f 6//1 13//2 12//3
f 14//4 9//5 15//6
f 10//7 11//8 15//6
f 11//8 14//4 15//6
f 11//8 26//9 14//4
f 14//4 26//9 27//10
f 33//11 14//4 16//12
f 27//10 16//12 14//4
f 16//12 27//10 17//13
f 49//14 1//15 23//16
f 5//17 6//1 52//18
f 7//19 8//20 9//5
f 30//21 52//18 32//22
f 52//18 6//1 32//22
f 6//1 12//3 32//22
f 13//2 7//19 9//5
f 9//5 12//3 13//2
f 14//4 12//3 9//5
f 12//3 14//4 33//11
f 33//11 16//12 34//23
f 34//23 64//24 33//11
f 34//23 16//12 17//13
f 35//25 17//13 36//26
f 34//23 17//13 35//25
f 36//26 17//13 18//27
f 37//28 36//26 18//27
f 37//28 18//27 19//29
f 24//30 21//31 39//32
f 19//29 41//33 37//28
f 22//34 68//35 49//14
f 22//34 47//36 68//35
f 22//34 49//14 23//16
f 47//36 22//34 25//37
f 54//38 2//39 53//40
f 54//38 3//41 2//39
f 55//42 3//41 54//38
f 4//43 3//41 55//42
f 61//44 60//45 28//46
f 105//47 61//44 29//48
f 61//44 28//46 29//48
f 31//49 30//21 62//50
f 62//50 30//21 32//22
f 32//22 12//3 63//51
f 12//3 33//11 83//52
f 83//52 63//51 12//3
f 33//11 64//24 83//52
f 35//25 36//26 37//28
f 88//53 38//54 20//55
f 21//31 38//54 65//56
f 39//32 21//31 65//56
f 39//32 40//57 24//30
f 66//58 40//57 39//32
f 78//59 37//28 41//33
f 78//59 41//33 42//60
f 67//61 78//59 42//60
f 67//61 42//60 43//62
f 81//63 67//61 43//62
f 58//64 71//65 70//66
f 58//64 70//66 44//67
f 44//67 50//68 58//64
f 44//67 70//66 45//69
f 76//70 70//66 71//65
f 70//66 76//70 46//71
f 46//71 45//69 70//66
f 45//69 46//71 51//72
f 68//35 47//36 46//71
f 81//63 48//73 49//14
f 81//63 43//62 48//73
f 68//35 81//63 49//14
f 77//74 72//75 58//64
f 72//75 71//65 58//64
f 58//64 50//68 73//76
f 75//77 71//65 72//75
f 82//78 59//79 60//45
f 60//45 61//44 82//78
f 106//80 32//22 63//51
f 34//23 35//25 85//81
f 85//81 84//82 34//23
f 85//81 35//25 37//28
f 85//81 37//28 86//83
f 86//83 37//28 79//84
f 80//85 37//28 78//59
f 80//85 79//84 37//28
f 46//71 76//70 68//35
f 76//70 81//63 68//35
f 69//86 73//76 50//68
f 105//47 29//48 31//49
f 29//48 30//21 31//49
f 56//87 55//42 54//38
f 56//87 88//53 57//88
f 88//53 20//55 57//88
f 94//89 76//70 95//90
f 73//76 77//74 58//64
f 77//74 75//77 72//75
f 93//91 81//63 94//89
f 80//85 78//59 100//92
f 96//93 105//47 31//49
f 96//93 31//49 62//50
f 96//93 62//50 32//22
f 106//80 96//93 32//22
f 83//52 107//94 63//51
f 64//24 34//23 83//52
f 83//52 34//23 84//82
f 65//56 38//54 88//53
f 97//95 89//96 66//58
f 89//96 97//95 90//97
f 97//95 92//98 90//97
f 100//92 78//59 67//61
f 93//91 100//92 67//61
f 81//63 93//91 67//61
f 76//70 94//89 81//63
f 75//77 95//90 76//70
f 76//70 71//65 75//77
f 122//99 69//86 87//100
f 73//76 69//86 122//99
f 100//92 79//84 80//85
f 101//101 94//89 95//90
f 99//102 102//103 85//81
f 103//104 93//91 94//89
f 75//77 77//74 104//105
f 106//80 63//51 107//94
f 107//94 83//52 108//106
f 108//106 83//52 84//82
f 85//81 108//106 84//82
f 108//106 85//81 102//103
f 99//102 85//81 86//83
f 39//32 65//56 109//107
f 109//107 110//108 39//32
f 66//58 39//32 110//108
f 110//108 97//95 66//58
f 86//83 79//84 99//102
f 101//101 95//90 75//77
f 77//74 73//76 104//105
f 111//109 104//105 73//76
f 98//110 122//99 87//100
f 122//99 111//109 73//76
f 114//111 91//112 82//78
f 105//47 82//78 61//44
f 115//113 54//38 53//40
f 56//87 54//38 116//114
f 116//114 88//53 56//87
f 120//115 79//84 100//92
f 123//116 100//92 93//91
f 123//116 93//91 103//104
f 104//105 117//117 75//77
f 118//118 94//89 101//101
f 101//101 75//77 117//117
f 119//119 102//103 99//102
f 79//84 120//115 99//102
f 123//116 120//115 100//92
f 103//104 94//89 124//120
f 127//121 105//47 96//93
f 128//122 127//121 96//93
f 106//80 128//122 96//93
f 128//122 106//80 146//123
f 122//99 98//110 121//124
f 102//103 119//119 108//106
f 124//120 126//125 103//104
f 123//116 125//126 120//115
f 99//102 120//115 125//126
f 118//118 101//101 117//117
f 146//123 106//80 107//94
f 161//127 107//94 108//106
f 129//128 65//56 88//53
f 97//95 110//108 130//129
f 123//116 103//104 126//125
f 125//126 119//119 99//102
f 94//89 118//118 124//120
f 104//105 111//109 143//130
f 132//131 137//132 152//133
f 114//111 82//78 113//134
f 113//134 82//78 175//135
f 82//78 105//47 175//135
f 134//136 175//135 105//47
f 134//136 105//47 127//121
f 157//137 54//38 115//113
f 136//138 54//38 157//137
f 136//138 116//114 54//38
f 121//124 92//98 97//95
f 121//124 98//110 92//98
f 149//139 125//126 123//116
f 146//123 140//140 128//122
f 161//127 108//106 119//119
f 65//56 129//128 109//107
f 141//141 124//120 118//118
f 138//142 141//141 117//117
f 141//141 118//118 117//117
f 139//143 138//142 104//105
f 138//142 117//117 104//105
f 139//143 104//105 143//130
f 143//130 111//109 142//144
f 142//144 111//109 122//99
f 139//143 159//145 138//142
f 139//143 143//130 144//146
f 127//121 160//147 134//136
f 160//147 127//121 145//148
f 127//121 128//122 145//148
f 145//148 128//122 140//140
f 161//127 146//123 107//94
f 147//149 109//107 129//128
f 161//127 119//119 148//150
f 148//150 119//119 149//139
f 149//139 119//119 125//126
f 149//139 123//116 126//125
f 126//125 124//120 141//141
f 166//151 141//141 138//142
f 142//144 144//146 143//130
f 122//99 150//152 142//144
f 133//153 132//131 158//154
f 158//154 132//131 152//133
f 151//155 158//154 152//133
f 154//156 131//157 155//158
f 131//157 112//159 155//158
f 156//160 157//137 135//161
f 115//113 135//161 157//137
f 129//128 88//53 116//114
f 130//129 121//124 97//95
f 166//151 138//142 159//145
f 159//145 139//143 165//162
f 144//146 142//144 163//163
f 140//140 146//123 167//164
f 167//164 146//123 161//127
f 110//108 109//107 147//149
f 149//139 126//125 166//151
f 166//151 126//125 141//141
f 150//152 122//99 121//124
f 166//151 159//145 164//165
f 163//163 165//162 139//143
f 139//143 144//146 163//163
f 163//163 142//144 150//152
f 129//128 116//114 147//149
f 167//164 161//127 168//166
f 110//108 169//167 130//129
f 162//168 170//169 121//124
f 150//152 121//124 170//169
f 168//166 161//127 148//150
f 171//170 148//150 149//139
f 171//170 149//139 166//151
f 164//165 159//145 165//162
f 152//133 153//171 172//172
f 172//172 151//155 152//133
f 151//155 172//172 176//173
f 153//171 154//156 172//172
f 155//158 172//172 154//156
f 186//174 156//160 173//175
f 186//174 174//176 156//160
f 155//158 112//159 113//134
f 113//134 175//135 155//158
f 157//137 156//160 174//176
f 136//138 157//137 209//177
f 162//168 121//124 130//129
f 178//178 164//165 165//162
f 177//179 163//163 150//152
f 175//135 134//136 188//180
f 134//136 160//147 188//180
f 160//147 145//148 179//181
f 179//181 145//148 140//140
f 179//181 140//140 180//182
f 140//140 167//164 180//182
f 180//182 167//164 181//183
f 110//108 147//149 182//184
f 170//169 191//185 150//152
f 168//166 148//150 184//186
f 184//186 148//150 171//170
f 178//178 171//170 166//151
f 178//178 166//151 164//165
f 177//179 178//178 165//162
f 177//179 165//162 163//163
f 177//179 150//152 191//185
f 179//181 183//187 160//147
f 167//164 168//166 181//183
f 181//183 168//166 184//186
f 170//169 162//168 185//188
f 184//186 171//170 178//178
f 177//179 184//186 178//178
f 186//174 176//173 172//172
f 196//189 186//174 172//172
f 176//173 186//174 173//175
f 209//177 157//137 174//176
f 187//190 136//138 209//177
f 187//190 116//114 136//138
f 147//149 116//114 187//190
f 182//184 169//167 110//108
f 169//167 162//168 130//129
f 169//167 185//188 162//168
f 188//180 160//147 183//187
f 193//191 179//181 180//182
f 180//182 181//183 193//191
f 189//192 181//183 184//186
f 189//192 184//186 194//193
f 184//186 190//194 194//193
f 190//194 184//186 177//179
f 190//194 177//179 191//185
f 190//194 170//169 185//188
f 170//169 190//194 191//185
f 203//195 175//135 188//180
f 203//195 188//180 183//187
f 183//187 179//181 192//196
f 182//184 147//149 187//190
f 193//191 192//196 179//181
f 204//197 193//191 181//183
f 201//198 204//197 181//183
f 201//198 181//183 189//192
f 185//188 169//167 206//199
f 206//199 202//200 185//188
f 190//194 185//188 202//200
f 202//200 194//193 190//194
f 186//174 197//201 174//176
f 172//172 155//158 196//189
f 196//189 155//158 195//202
f 155//158 175//135 195//202
f 203//195 195//202 175//135
f 197//201 209//177 174//176
f 198//203 203//195 183//187
f 192//196 199//204 183//187
f 182//184 187//190 200//205
f 192//196 193//191 204//197
f 182//184 213//206 169//167
f 213//206 206//199 169//167
f 189//192 194//193 201//198
f 206//199 201//198 202//200
f 201//198 194//193 202//200
f 199//204 198//203 183//187
f 205//207 204//197 201//198
f 201//198 206//199 205//207
f 200//205 214//208 182//184
f 213//206 182//184 214//208
f 186//174 196//189 207//209
f 207//209 196//189 195//202
f 207//209 195//202 203//195
f 186//174 207//209 197//201
f 197//201 208//210 209//177
f 187//190 209//177 208//210
f 208//210 200//205 187//190
f 211//211 203//195 198//203
f 211//211 198//203 199//204
f 211//211 199//204 212//212
f 212//212 199//204 205//207
f 192//196 205//207 199//204
f 204//197 205//207 192//196
f 206//199 213//206 205//207
f 210//213 203//195 211//211
f 215//214 211//211 216//215
f 212//212 216//215 211//211
f 212//212 217//216 216//215
f 217//216 212//212 218//217
f 218//217 212//212 219//218
f 212//212 205//207 219//218
f 214//208 200//205 219//218
f 219//218 205//207 213//206
f 214//208 219//218 213//206
f 210//213 207//209 203//195
f 197//201 207//209 210//213
f 210//213 211//211 215//214
f 208//210 210//213 220//219
f 197//201 210//213 208//210
f 220//219 217//216 208//210
f 208//210 217//216 218//217
f 200//205 208//210 218//217
f 200//205 218//217 219//218
l 74 72
